<svg id="Layer_1" data-name="Layer 1" xmlns="http://www.w3.org/2000/svg" viewBox="0 0 429.39 463.11"><defs><style>.cls-1{fill:#fff;}</style></defs><path class="cls-1" d="M361.23,324.52a89.31,89.31,0,0,1,2.47,31.18c-2.08,21.43-11.42,34.89-21.9,49.3H268.2l91-87,39.12-37.36L348,296.56,239.31,330.79l4.47-129.18-59.07,96.51-33.24-75.66-53.18-121L118.65,242l12.74,88L47.77,323.6l-6.07-.46,4.48,6.15L101.35,405H30.43c-1.66-8.73-1.59-19.67-.62-29.77A54.65,54.65,0,0,1,44.86,342c0-1.35,0-2.7.11-4.05L29.05,316.11l21.1,1.59c8.25-17.37,25.1-28.22,43.37-26,1.18.15,2.36.34,3.5.6,0-.48.07-1,.13-1.48a84.11,84.11,0,0,1,16.28-42.7l-27.54-190,71.69,163.21c1.28-.17,2.58-.3,3.88-.4a59.9,59.9,0,0,1,11.72.32,58.84,58.84,0,0,1,8.26,1.61c8.17-19.31,26.37-31.63,46.12-29.19A39.86,39.86,0,0,1,239.47,197l11.17-18.24-.86,24.79c12.58,10.65,20,28.43,18.16,47.5a59.73,59.73,0,0,1-2,10.54,52.81,52.81,0,0,1,4.56,12.27,60.81,60.81,0,0,1,32.28-4.81c15.71,1.94,29.6,9.78,40.17,21.39l.91,1,77.51-24.43Z"/><polygon class="cls-1" points="350.45 308.85 249.37 405 227.04 405 286.99 347.97 211.46 371.67 213.59 310.41 185.59 355.95 143.58 260.79 159.72 371.67 117.99 368.55 145.5 405 121.6 405 74.42 342.44 142.59 347.56 126.19 235 116.22 166.47 142.26 225.46 184.82 321.88 230.58 247.49 227.08 347.56 350.45 308.85"/></svg>