<svg id="Layer_1" data-name="Layer 1" xmlns="http://www.w3.org/2000/svg" viewBox="0 0 429.39 463.11"><defs><style>.cls-1{fill:#fff;}</style></defs><path class="cls-1" d="M343.53,283.59c-7.25,7.61-10.68,15.15-10.46,25.64.52,26.49-.25,53,.39,79.54.22,9.19-2.36,13.43-11.55,15.34q-71.71,14.94-143.19,30.81c-9.52,2.11-14.12,1-13-10.35,1-10.11.5-20.41.09-30.6-.56-13.84-9.61-21.31-23.34-19.07-12.54,2.05-24.92,5-37.43,7.34-14.12,2.6-22.82-4-23.26-18.47-.5-16.31-.14-32.64-.17-48.95,0-25.19-3.84-29.07-28.9-29.62-2.94-.06-5.81-.47-11.1-.92,9-17,16.5-33,25.61-48.06,10.93-18,15.22-36.74,14.75-57.92-1.21-52.07,20.66-93.85,62.24-124.61C190.68,19.39,242.12,14,294.61,36.16c53.3,22.48,84,64.21,91.7,122C392.81,207,377,248.51,343.53,283.59Z"/></svg>