<svg id="Layer_1" data-name="Layer 1" xmlns="http://www.w3.org/2000/svg" viewBox="0 0 429.39 463.11"><defs><style>.cls-1{fill:#fff;}</style></defs><path class="cls-1" d="M399.51,45.81c-3.67-21.38-18.29-29.46-38.1-20.83a343.45,343.45,0,0,1-81.9,24.19c-73.64,12.08-145.79,7.88-216-19.34-19.3-7.48-32.94.52-35.92,21.21C17.2,123.66,22,195.33,43.52,265.53c15.09,49.12,37.6,94.43,74.82,130.83,31.62,31,68.66,49.73,114.47,44.22,37.78-4.55,67.22-24.66,91.93-52.26,35.62-39.82,55.36-87.72,68.85-139.08A506.78,506.78,0,0,0,399.51,45.81ZM74.69,177.1c-3.65,1.17-7.13,2.17-9.73-1.55-2.48-3.53-.86-6.74,1.22-9.94C80.94,143,108.78,132,140.06,139.72c16.1,4.41,30.51,17.57,39.26,37.22,1.48,3.34,2.68,6.89-.89,9.88-3.4,2.81-6.48,1.49-9.86-.42C138.67,169.46,107.29,166.71,74.69,177.1ZM307.53,288.71c-13.86,48.61-65.32,78.66-116.22,65.9-31.25-9.36-54-30.92-65.72-64.09-.82-2.31-2.32-5-.14-7,2.8-2.52,5,.48,7.3,1.7,56.14,29.49,111.81,29.12,167.07-2.45,2.43-1.4,4.73-5.05,8-2.5S308.3,286,307.53,288.71Zm56.91-118.57c-3.7,5.83-8.9,2-13.51,1.07-1.37-.27-2.7-.65-4-1-30-6.31-58.2-2-84.54,13.86-3.54,2.12-7,5-11.16,1.2-3.7-3.36-2.08-7.11-.63-10.69,18.82-46.5,77.35-55.83,109.64-17.46C363.32,160.84,368,164.59,364.44,170.14Z"/></svg>