<svg id="Layer_1" data-name="Layer 1" xmlns="http://www.w3.org/2000/svg" viewBox="0 0 429.39 463.11"><defs><style>.cls-1{fill:#fff;}</style></defs><path class="cls-1" d="M230.31,339.55c1-26.47,14.75-51.18,41.62-68.23,4.55-2.88,6.72-5.63,6.4-11.21-.53-9.17-.1-18.4-.14-27.6,0-7.86,3.91-11.69,11.66-11.77,2.86,0,5.8.42,8.55-.14,4.21-.85,11.17,3.13,12.16-2.66,1.11-6.48,4.15-14.89-5.94-19.43-7-3.13-10.87-10.07-10.64-17.88.37-12.65-3.35-25.87,6.69-37.32,3.11-3.55.44-8.83-6.07-9.46C272.75,131.74,256,108.66,260,86.51c1.12-6.16-4.69-11.78-10.8-10.11-9.41,2.56-19,1.66-28.39,1.15-8.38-.46-14.59-5.3-19-12.64-4.18-7-8.2-6.89-11.88.23a24.51,24.51,0,0,1-17.39,13.45c-11.78,2.54-23.52,9.18-35.49.57-1.49-1.07-2.81-.9-4.17.43-1.68,1.63-1.53,3.33-.54,5.13,5.41,9.83,3.07,20.52,3,30.83,0,8.9-5.19,15.32-12.8,19.84-3.76,2.24-6.36,16.06-3.9,19.5,1.66,2.32,4.1,1.28,6.1,1.2C154,154.84,151,159.18,151,183.2c0,6.66.08,13.34-.17,20-.67,17.58-13,27.82-30.46,25.42-28.6-3.93-54.44,12.85-60.85,39.52-6.6,27.49,7.84,54.24,34.75,63.72,5,1.76,10.48,2.36,15.78,3.16,8.8,1.33,13.58,8.2,12.68,18.66-.83,9.65-7.08,15.71-15.76,15.26-38.08-1.94-70-27.74-80.07-64.8A86.37,86.37,0,0,1,63.67,208c5.75-3.69,8.44-7.27,7.85-14.23-.7-8.19-.2-16.49-.14-24.74s3.84-13.16,12.73-12.91c2.53.08,5.08,0,7.61,0,14.69,0,14.44,0,13.6-14.33-.24-4.1-2.46-5.15-5.25-6.8-8.28-4.89-12.63-12.11-12.31-22,.18-5.71-.1-11.43.06-17.14.43-14.7,11.51-24.64,26.21-23.64,10.16.7,12.7-1.78,12.84-12.44a22.75,22.75,0,0,1,.48-3.76c3.5-19.61,20.31-20.26,34.69-24,10.84-2.86,20,1,26.45,10.17,5.42,7.74,8.63,7.6,13.9-.52,4.38-6.75,10.29-11.2,18.6-11.54,6.66-.27,13.34-.61,20-.31,16.9.76,26.89,14.23,23.07,30.69-1.8,7.78,3.52,13,11.32,11.15,12.51-3,21.67.67,28.38,11.55,3,4.84,5.94,9.72,8.6,14.76,4.28,8.13,4.32,16.34-.15,24.5-3.76,6.87-.51,13.42,7.15,14.57,14.24,2.13,22,10.72,22.27,24.9.12,5.71.05,11.43,0,17.14-.07,8.63-3.6,16.07-11.17,19.66-10,4.77-5.21,12.9-5.87,19.69-.31,3.2,3.22,2.16,5.18,2.22,5.71.17,11.43,0,17.14.18,6.44.24,10.13,3.89,10.2,10.2.13,14,.52,28-.48,41.87s-14.71,22.54-30.19,20.38c-28.24-3.94-53.15,12.08-60.36,38.83-7,26,6.77,53.11,32.27,63.67,5.68,2.36,11.66,2.85,17.62,3.65,8.72,1.16,14.38,8.81,13.49,18.28-.95,10-7.46,16.22-16.38,15.65C265.43,430.29,230,392.46,230.31,339.55ZM299,111.69c4.54.17,5.19-.17,3.26-4.35-3-6.54-6.26-13.19-10.64-18.83-3.38-4.35-8.85-10.79-12.32.71-.57,1.88-2.45,2.8-4.44,3.14-3.51.59-3.79,2.57-2.48,5.45,3.27,7.18,6.8,14.26,12,20.23,2.05,2.37,5.51,5.88,6.32-1.59C291.07,112.77,294.35,110.78,299,111.69ZM178.08,61.44C173.5,59.33,169,60.12,168,55.18c-1-5.31,2.94-7,8.19-8.83-10.65-5-18.49.27-26.43,2.14-4.34,1-13.27,2.65-3.71,10,1.85,1.44,1.92,4.27.69,6.2-3.64,5.75,1.19,6.39,4.19,5.81C159.79,68.83,169,67.7,178.08,61.44Zm37.33-15c3.45,3.37,9,7,3.06,11.89s-.47,5.91,2.1,6.13c6.84.61,13.77.21,21,.21-.8-3.75-5-7.09-.87-11.19,3.76-3.76,7.21-1.43,11,.73C249.09,41.45,229.4,37.48,215.41,46.4ZM119.5,123.86c4.74-12,2.85-21.67,2.58-31.86-4.87,1.74-7.11,7.46-12.45,4.54-3.83-2.09-3.26-5.86-3.19-9.72-7.48,7-8.49,25.53-1.84,35.45.85-4.86.7-10.29,7.11-10.13C117.59,112.29,117.49,117.59,119.5,123.86ZM318.24,236.5c-7.1-.12-13,7-10.17,13.3,2.27,5,3.8,9.69,3.64,15.17-.12,3.84,2,7,6.1,7,4.37,0,6.79-2.88,6.54-7.46a24.32,24.32,0,0,1,3.12-13.35C331.06,244.42,325.65,236.62,318.24,236.5ZM111.36,171.84c-7.41.13-12.76,8-9.22,14.84,2.14,4.12,3.5,7.92,3.12,12.45s1.55,7.81,6,8S118,204,118,199.68a28,28,0,0,1,3.16-13.48C124.51,179.48,118.82,171.72,111.36,171.84Zm198.63,16c1.66-5.35,1.27-10.77,7.16-11.22,6.87-.52,6.52,5.79,8.31,10.42,5.4-10.84,4.34-28.73-2-35.65-2.63,11.15-8.71,8.86-16.18,2.58C307.38,165.9,304.7,176.38,310,187.89Z"/><path class="cls-1" d="M350,302.29c8.83-5.86,15.4-12.84,18.19-22.85,2.1-7.57,5.2-1.52,7,0,34.69,28.53,40.61,82.9,13.17,119C376,414.74,360.09,425.68,339.12,431c3.47-11.14,4.24-21.34-1.52-30.93-1.58-2.63-.65-3.57,1.56-5C378.71,369.07,382.94,335.06,350,302.29Z"/><path class="cls-1" d="M132.57,365.55c4.43-10.44,3.93-20.45-1.34-30.09-3.14-5.75,2.55-5.3,4.89-6.55,30.47-16.3,38.58-55.7,16.57-81.85-2.79-3.33-6.51-5.88-10.24-9.18,11.26-6.47,17.52-15.27,20.44-26.51,25.19,14.18,40.83,51.63,35.43,84.34C192.68,329.8,164.67,359.87,132.57,365.55Z"/></svg>