<svg id="Layer_1" data-name="Layer 1" xmlns="http://www.w3.org/2000/svg" viewBox="0 0 429.39 463.11"><defs><style>.cls-1{fill:#fff;}</style></defs><path class="cls-1" d="M209.67,145.65v82.54h-29a26.06,26.06,0,0,0-18.42,7l-2.49,2.37-2.42-2.45a23.73,23.73,0,0,0-17.41-7l-66.64,1.61a21.72,21.72,0,0,0-5.54.88l-4.49,1.32V215.52a14.3,14.3,0,0,0-12.42-14.13l-12.5-1.61,1.23-20.84a37.12,37.12,0,0,1,35.63-35.06l127.45-5.41h.12A7.24,7.24,0,0,1,209.67,145.65Z"/><path class="cls-1" d="M391.75,199.68l-13.16,1.72a14.28,14.28,0,0,0-12.4,14.12v16.3l-4.44-1.23a21.34,21.34,0,0,0-5.13-.77L290,228.19a23.58,23.58,0,0,0-16.9,6.55l-2.45,2.36-2.43-2.4a22.31,22.31,0,0,0-15.11-6.51H220.4V145.65a7.22,7.22,0,0,1,6.93-7.18h.26l127.34,5.4A37.13,37.13,0,0,1,390.54,179Z"/><path class="cls-1" d="M366.19,292.21v18.41h-303V291.8l4.55,1.43a13,13,0,0,0,3.83.58h73.46a12.59,12.59,0,0,0,11.55-7.31l3.16-6.76,3.18,6.75A13.39,13.39,0,0,0,175.1,294h79.84a13.28,13.28,0,0,0,12.09-7.3l3.22-6.53,3.09,6.59A12.58,12.58,0,0,0,284.85,294h73.47a12.44,12.44,0,0,0,3.42-.48Z"/><path class="cls-1" d="M151.87,252.61v.19l-6.39,28.78H71.15L64.9,252.84a9,9,0,0,1,1.43-7,7.21,7.21,0,0,1,.43-.58,8.92,8.92,0,0,1,6.78-3.35l66.93-1.62a11.27,11.27,0,0,1,8.48,3.77,10.93,10.93,0,0,1,1.42,1.95A11.2,11.2,0,0,1,151.87,252.61Z"/><path class="cls-1" d="M365.19,250.68a5.3,5.3,0,0,1,0,.89,8.5,8.5,0,0,1-.15,1.19l-1.7,7.89-4.58,21.07H284.41l-6.37-29a1.48,1.48,0,0,1,0-.21,11.19,11.19,0,0,1,1.6-6.58,10.78,10.78,0,0,1,1.31-1.76,11.39,11.39,0,0,1,8.78-3.78L356.33,242a9,9,0,0,1,6.87,3.44,3.44,3.44,0,0,1,.28.36A8.89,8.89,0,0,1,365.19,250.68Z"/><path class="cls-1" d="M262.82,252.58l-1.91,8.11-4.93,21h-81.9l-7-29a10.24,10.24,0,0,1,2-6.94,10.12,10.12,0,0,1,.82-1,13.65,13.65,0,0,1,10.51-4.36h72.53a10.43,10.43,0,0,1,7.72,4.13,11.21,11.21,0,0,1,1,1.5A9.47,9.47,0,0,1,262.82,252.58Z"/><path class="cls-1" d="M423.17,214c0,1.35-.13,2.93-.32,4.72v.08L410.43,319.41a6.54,6.54,0,0,1-6.49,5.73H383.46a6.55,6.55,0,0,1-6.54-6.53V218.17a6.55,6.55,0,0,1,5.7-6.48l33.12-4.32.59-.05a6.54,6.54,0,0,1,6.84,6.67Z"/><path class="cls-1" d="M52.48,218.17V318.61a6.54,6.54,0,0,1-6.54,6.53H25.45A6.54,6.54,0,0,1,19,319.41L6.55,218.79c-.19-1.9-.3-3.48-.33-4.8a6.6,6.6,0,0,1,2-4.82A6.52,6.52,0,0,1,13,207.32l.63.05,33.15,4.32A6.55,6.55,0,0,1,52.48,218.17Z"/></svg>