<svg id="Layer_1" data-name="Layer 1" xmlns="http://www.w3.org/2000/svg" viewBox="0 0 429.39 463.11"><defs><style>.cls-1{fill:#fff;}</style></defs><rect class="cls-1" x="215.54" y="359.21" width="73.98" height="77.09" rx="20.17" transform="translate(505.07 795.5) rotate(180)"/><path class="cls-1" d="M311.07,266.14S289.17,376,289.52,414l-.22,7.42c12.41,7.94,39.88,11.76,67.95,3.06,9.14-2.83,12.37-8,13.64-16.53C381,340.26,311.07,266.14,311.07,266.14Z"/><rect class="cls-1" x="139.87" y="359.21" width="73.98" height="77.09" rx="20.17"/><path class="cls-1" d="M118.32,266.14S140.22,376,139.87,414l.22,7.42c-12.41,7.94-39.88,11.76-67.95,3.06-9.14-2.83-12.36-8-13.64-16.53C48.35,340.26,118.32,266.14,118.32,266.14Z"/><rect class="cls-1" x="139.87" y="26.82" width="73.98" height="79.75" rx="20.17"/><path class="cls-1" d="M118.32,202.85S140.22,89.16,139.87,49.9l.22-7.68c-12.41-8.2-39.88-12.16-67.95-3.16C63,42,59.78,47.36,58.5,56.16,48.35,126.17,118.32,202.85,118.32,202.85Z"/><rect class="cls-1" x="215.54" y="26.82" width="73.98" height="79.75" rx="20.17" transform="translate(505.07 133.38) rotate(180)"/><path class="cls-1" d="M311.07,202.85S289.17,89.16,289.52,49.9l-.22-7.68c12.41-8.2,39.88-12.16,67.95-3.16,9.14,2.93,12.37,8.3,13.64,17.1C381,126.17,311.07,202.85,311.07,202.85Z"/></svg>