<svg id="Layer_1" data-name="Layer 1" xmlns="http://www.w3.org/2000/svg" viewBox="0 0 429.39 463.11"><defs><style>.cls-1{fill:#fff;}</style></defs><path class="cls-1" d="M229.41,223.92l15.39,2.25L233.66,237a10.31,10.31,0,0,0-3,9.18l2.63,15.34-13.79-7.23a10.25,10.25,0,0,0-9.66,0l-13.79,7.23,2.63-15.34a10.39,10.39,0,0,0-3-9.2l-11.14-10.85L200,223.92a10.35,10.35,0,0,0,7.83-5.68l6.88-14,6.9,14A10.33,10.33,0,0,0,229.41,223.92Z"/><path class="cls-1" d="M286.41,201.53a76.86,76.86,0,0,0-71.58-47.63c-.27,0-.52,0-.79,0-42.71.38-77.27,35-77,77.07.23,43.81,34.3,78.16,77.57,78.2h.05a77.63,77.63,0,0,0,55.33-22.85,76,76,0,0,0,22.45-54.29A80.43,80.43,0,0,0,286.41,201.53Zm-20.67,27.62-18,17.54L252,271.45a10.38,10.38,0,0,1-15.06,10.95l-22.25-11.69L192.45,282.4a10.38,10.38,0,0,1-15.07-10.94l4.25-24.77-18-17.54a10.38,10.38,0,0,1,5.76-17.71l24.86-3.62,11.12-22.53a10.38,10.38,0,0,1,18.61,0l11.13,22.54L260,211.44a10.38,10.38,0,0,1,5.76,17.71Z"/><path class="cls-1" d="M404.68,319.31c-4.21-14.41-19.27-22.12-34-16.67-5.78,2.13-8.38.7-11.24-4.27q-17.56-30.44-35.8-60.46c-2.88-4.74-2.71-8.26.12-12.91q18.06-29.66,35.36-59.74c3-5.14,5.46-7,11.74-4.66a25.56,25.56,0,0,0,34.09-17.77,26.11,26.11,0,0,0-19.61-32c-14-3.27-28.23,5.26-30.79,19.83-1.36,7.77-4.86,9.28-11.63,9.06-11.16-.37-22.33-.1-33.5-.1v.62c-12,0-24,.3-36-.2-3-.13-7.13-2.14-8.56-4.57-12.38-21.18-24.15-42.7-36.33-64-2.48-4.34-1.46-6.82,2.08-9.94a33,33,0,0,0,8.12-10.4c5.49-11.74.5-26-10.82-32.63a26.09,26.09,0,0,0-31,41.53c3.39,3.2,7.81,5.19,4.16,11.47-12.31,21.21-24,42.77-36.35,64a10.66,10.66,0,0,1-7.74,4.56c-24.58.12-49.15-.33-73.71-.43-4.81,0-7-1.85-7.62-6.69A28.19,28.19,0,0,0,72,122.83a26,26,0,0,0-46.31,23.3c5.34,13.08,19.66,19.73,33.13,14.49,5.75-2.23,8.31-1,11.23,4,11.84,20.52,24.25,40.72,35.91,61.34,1.63,2.88,1.58,8.26-.05,11.16C94.07,258,81.57,278.48,69.5,299.2c-2.55,4.39-5,5.43-10.07,3.62-15.13-5.46-30,1.64-34.53,15.8-4.6,14.51,3.59,29.31,18.4,33.32,14.54,3.92,28.69-4.74,31.86-20.41,1.25-6.24,3.77-8.2,9.88-8.19,23.45,0,46.91-.23,70.36-.63,4.76-.09,7.62,1.34,10,5.63q17.16,31.1,34.89,61.91c2.92,5.06,2.52,7.91-2.27,11.79a25.56,25.56,0,0,0-2.26,37.84,25.84,25.84,0,0,0,38-.08c10.33-11.07,9.63-28.09-2.46-37.84-5-4-4.88-6.94-2.07-11.83q17.55-30.42,34.51-61.19c2.45-4.46,5.23-6.37,10.46-6.27q34.74.74,69.51.66c6.24,0,9.32,1.42,10.61,8.36,2.9,15.52,17.42,24.24,31.91,20.21S408.85,333.56,404.68,319.31Zm-95.54-87.09a92.77,92.77,0,0,1-27.34,66,94.24,94.24,0,0,1-67.19,27.77h-.06c-52.6-.05-94-41.73-94.31-94.86-.27-51.31,41.74-93.44,93.64-93.91.32,0,.63,0,1,0a93.55,93.55,0,0,1,66.27,27,94.88,94.88,0,0,1,28,67.88Z"/></svg>