<svg id="Layer_1" data-name="Layer 1" xmlns="http://www.w3.org/2000/svg" viewBox="0 0 300 300"><defs><style>.cls-1{fill:none;stroke:#fff;stroke-linecap:round;stroke-linejoin:round;stroke-width:7px;}.cls-2{font-size:48px;fill:#fff;font-family:IBMPlexMono-Bold, IBM Plex Mono;font-weight:700;}</style></defs><polyline class="cls-1" points="150 80 140 70 180 30 190 40"/><polyline class="cls-1" points="170 20 180 30 140 70 130 60"/><polyline class="cls-1" points="150 20 140 30 180 70 190 60"/><polyline class="cls-1" points="170 80 180 70 140 30 130 40"/><line class="cls-1" x1="105" y1="50" x2="75" y2="50"/><line class="cls-1" x1="35" y1="120" x2="35" y2="90"/><line class="cls-1" x1="55" y1="50" x2="35" y2="70"/><line class="cls-1" x1="35" y1="260" x2="55" y2="280"/><line class="cls-1" x1="115" y1="110" x2="95" y2="130"/><line class="cls-1" x1="115" y1="220" x2="95" y2="200"/><line class="cls-1" x1="185" y1="220" x2="205" y2="200"/><line class="cls-1" x1="265" y1="260" x2="245" y2="280"/><line class="cls-1" x1="245" y1="110" x2="265" y2="130"/><line class="cls-1" x1="185" y1="160" x2="205" y2="180"/><line class="cls-1" x1="165" y1="160" x2="145" y2="180"/><line class="cls-1" x1="35" y1="150" x2="35" y2="180"/><line class="cls-1" x1="35" y1="210" x2="35" y2="240"/><line class="cls-1" x1="95" y1="150" x2="95" y2="180"/><line class="cls-1" x1="75" y1="280" x2="105" y2="280"/><line class="cls-1" x1="135" y1="280" x2="165" y2="280"/><line class="cls-1" x1="195" y1="280" x2="225" y2="280"/><line class="cls-1" x1="135" y1="110" x2="165" y2="110"/><line class="cls-1" x1="135" y1="220" x2="165" y2="220"/><line class="cls-1" x1="195" y1="110" x2="225" y2="110"/><line class="cls-1" x1="265" y1="150" x2="265" y2="180"/><line class="cls-1" x1="265" y1="210" x2="265" y2="240"/><text class="cls-2" transform="translate(20.4 -9.68)">ADVENTURE</text></svg>