<svg id="Layer_1" data-name="Layer 1" xmlns="http://www.w3.org/2000/svg" viewBox="0 0 300 300"><defs><style>.cls-1{fill:none;stroke:#fff;stroke-linecap:round;stroke-linejoin:round;stroke-width:7px;}</style></defs><polyline class="cls-1" points="25 185 25 245 200 245 200 205 240 245 275 245 275 105 240 105"/><polyline class="cls-1" points="35 105 25 105 25 245 35 245"/><polyline class="cls-1" points="240 105 200 145 200 105 25 105 25 165"/><polyline class="cls-1" points="140 105 150 105 150 74.99 145 74.99"/><polyline class="cls-1" points="165 105 170 105 170 55 165 55"/><polyline class="cls-1" points="170 55 170 55 35 55 35 55 35 85 55 85 55 75 150 75 150 85"/></svg>