<svg id="Layer_1" data-name="Layer 1" xmlns="http://www.w3.org/2000/svg" viewBox="0 0 300 300"><defs><style>.cls-1{fill:none;stroke:#fff;stroke-linecap:round;stroke-linejoin:round;stroke-width:7px;}</style></defs><polyline class="cls-1" points="120 110 110 100 180 30 190 40"/><polyline class="cls-1" points="260 110 270 100 200 30 190 40"/><polyline class="cls-1" points="120 110 110 120 180 190 190 180"/><polyline class="cls-1" points="260 110 270 120 200 190 190 180"/><polyline class="cls-1" points="100 110 90 100 180 10 190 20"/><polyline class="cls-1" points="280 110 290 100 200 10 190 20"/><polyline class="cls-1" points="100 110 90 120 180 210 190 200"/><polyline class="cls-1" points="280 110 290 120 200 210 190 200"/><polyline class="cls-1" points="135 165 145 175 100 220 90 210"/><polyline class="cls-1" points="40 280 50 290 110 230 100 220"/><polyline class="cls-1" points="80 200 70 190 10 250 20 260"/><polyline class="cls-1" points="90 210 80 200 125 155 135 165"/><polyline class="cls-1" points="40 280 30 290 10 270 20 260"/><polyline class="cls-1" points="170 100 160 90 190 60 200 70"/></svg>