<svg id="Layer_1" data-name="Layer 1" xmlns="http://www.w3.org/2000/svg" viewBox="0 0 300 300"><defs><style>.cls-1{fill:#a8a8a8;}.cls-2{fill:#fff;}</style></defs><rect class="cls-1" width="300" height="300" rx="15"/><path class="cls-2" d="M185,150l74-74a8.5,8.5,0,0,0,0-12L236,41.06a8.5,8.5,0,0,0-12,0l-74,74-74-74a8.5,8.5,0,0,0-12,0L41.06,64a8.5,8.5,0,0,0,0,12l74,74-74,74a8.5,8.5,0,0,0,0,12L64,258.94a8.5,8.5,0,0,0,12,0l74-74,74,74a8.5,8.5,0,0,0,12,0L258.94,236a8.5,8.5,0,0,0,0-12Zm69,81.06L231.06,254a1.51,1.51,0,0,1-2.12,0L150,175.05,71.06,254a1.51,1.51,0,0,1-2.12,0L46,231.06a1.51,1.51,0,0,1,0-2.12L125,150,46,71.06a1.51,1.51,0,0,1,0-2.12L68.94,46a1.51,1.51,0,0,1,2.12,0L150,125,228.94,46a1.51,1.51,0,0,1,2.12,0L254,68.94a1.51,1.51,0,0,1,0,2.12L175.05,150,254,228.94A1.51,1.51,0,0,1,254,231.06Z"/><path class="cls-2" d="M254,228.94a1.51,1.51,0,0,1,0,2.12L231.06,254a1.51,1.51,0,0,1-2.12,0L150,175.05,71.06,254a1.51,1.51,0,0,1-2.12,0L46,231.06a1.51,1.51,0,0,1,0-2.12L125,150,46,71.06a1.51,1.51,0,0,1,0-2.12L68.94,46a1.51,1.51,0,0,1,2.12,0L150,125,228.94,46a1.51,1.51,0,0,1,2.12,0L254,68.94a1.51,1.51,0,0,1,0,2.12L175.05,150Z"/></svg>