<svg id="Layer_1" data-name="Layer 1" xmlns="http://www.w3.org/2000/svg" viewBox="0 0 300 300"><defs><style>.cls-1{fill:#a8a8a8;}.cls-2{fill:#fff;}</style></defs><rect class="cls-1" width="300" height="300" rx="15"/><path class="cls-2" d="M128.85,174.65a57,57,0,0,1,2.64-14,37.11,37.11,0,0,1,6.26-11.3,70.75,70.75,0,0,1,11.37-10.88,8.14,8.14,0,0,0,.63-.54q5.3-4.84,10.6-10.22a117.43,117.43,0,0,0,9.94-11.46,62.23,62.23,0,0,0,7.05-11.87,29.56,29.56,0,0,0,2.73-12.18A35.13,35.13,0,0,0,178,79.51a23.48,23.48,0,0,0-5.4-8.4,11.13,11.13,0,0,0-1.11-1,27.39,27.39,0,0,0-9.12-4.36,48.24,48.24,0,0,0-13.06-1.6,41.27,41.27,0,0,0-11.22,1.52,26.39,26.39,0,0,0-9.62,4.89,24.83,24.83,0,0,0-7,8.66,24,24,0,0,0-1.59,4.11,11.7,11.7,0,0,1-11.21,8.55h-22A11.66,11.66,0,0,1,75.26,78a58,58,0,0,1,20.8-34.68,68,68,0,0,1,23.73-11.95,106.44,106.44,0,0,1,29.5-3.92,116.91,116.91,0,0,1,31.9,4,66.93,66.93,0,0,1,23.89,11.87,52.93,52.93,0,0,1,14.74,19.71Q225,74.79,225,90.17a54.32,54.32,0,0,1-3.84,20.76,77,77,0,0,1-9.94,17.39,118.13,118.13,0,0,1-13.87,15.47q-7.63,7.16-15.34,13.94c-.19.16-.38.34-.56.52a77.56,77.56,0,0,0-7.26,8.22,23.77,23.77,0,0,0-3.85,7.54,33.64,33.64,0,0,0-1.6,8.42v.09a11.66,11.66,0,0,1-11.61,10.89h-17a11.63,11.63,0,0,1-11.62-12.08C128.58,178.92,128.7,176.7,128.85,174.65Zm-.24,55.94q6.88-7.12,19.07-7.13,11.87,0,19,7.13a24.08,24.08,0,0,1,7.13,17.72,23.15,23.15,0,0,1-7.13,17.23q-7.12,7-19,7-12.18,0-19.07-7a23.53,23.53,0,0,1-6.9-17.23A24.49,24.49,0,0,1,128.61,230.59Z"/></svg>