<svg id="Layer_1" data-name="Layer 1" xmlns="http://www.w3.org/2000/svg" viewBox="0 0 300 300"><defs><style>.cls-1{fill:#c8c8c8;}.cls-2,.cls-3{fill:#fff;stroke:#fff;stroke-miterlimit:10;}.cls-2{stroke-width:17px;}.cls-3{stroke-width:19px;}</style></defs><rect class="cls-1" width="300" height="300" rx="15"/><path class="cls-2" d="M172.55,67.75l-6.64,7.12-21.1,22.64a5.12,5.12,0,0,1-7.47,0h0a5.11,5.11,0,0,1,0-7l15.15-16.25h0l6.38-6.85-6.36-6.83h0L137.34,44.33a5.11,5.11,0,0,1,0-7h0a5.1,5.1,0,0,1,7.47,0l22.27,23.88,5.47,5.87A.49.49,0,0,1,172.55,67.75Z"/><path class="cls-3" d="M212.66,90.16h0c-1.57,1.57-.85,3.11.78,4.62a93,93,0,0,1,29.87,69.1c-.37,50.5-41.48,91.91-92,92.61a93.31,93.31,0,1,1-1.69-186.61H150c2.68,0,0-4.11,0-7.78,0-.12-.24,0-.35,0h0A101.06,101.06,0,0,0,48.93,164.72c.8,54.41,45.22,98.78,99.63,99.54A101.08,101.08,0,0,0,251.09,163.19c0-29.3-13.11-54.67-33-73.13A3.9,3.9,0,0,0,212.66,90.16Z"/></svg>