<svg id="Layer_1" data-name="Layer 1" xmlns="http://www.w3.org/2000/svg" viewBox="0 0 429.39 463.11"><defs><style>.cls-1{fill:#fff;}</style></defs><path class="cls-1" d="M196.64,133.31a11.18,11.18,0,0,1-3.8-15.49l21.59-35L179.06,61.71a11.15,11.15,0,0,1-3.8-15.48A11.57,11.57,0,0,1,191,42.37l35.4,21.07L248,28.37a11.57,11.57,0,0,1,15.72-3.86A11.18,11.18,0,0,1,267.51,40L245.89,75.06l35.39,21a11.16,11.16,0,0,1,3.81,15.49,11.6,11.6,0,0,1-15.73,3.86L234,94.38l-21.62,35.07A11.54,11.54,0,0,1,196.64,133.31Z"/><path class="cls-1" d="M230.54,440.22a12.22,12.22,0,0,1-.6-24.42,170.07,170.07,0,0,0,21.22-2.39,12.22,12.22,0,0,1,4.27,24.06,194.35,194.35,0,0,1-24.28,2.73Zm-38-2a12.26,12.26,0,0,1-1.9-.15,201,201,0,0,1-23.82-5.22,12.22,12.22,0,0,1,6.68-23.5,177.07,177.07,0,0,0,20.91,4.58,12.22,12.22,0,0,1-1.87,24.29ZM289.87,427a12.22,12.22,0,0,1-4.73-23.49A151.38,151.38,0,0,0,304.06,394a12.22,12.22,0,0,1,12.49,21,174.9,174.9,0,0,1-22,11.05A12.08,12.08,0,0,1,289.87,427Zm-155.16-7.79a12.2,12.2,0,0,1-5.67-1.41A191.34,191.34,0,0,1,108.16,405a12.22,12.22,0,0,1,14-20,166.1,166.1,0,0,0,18.2,11.1,12.22,12.22,0,0,1-5.7,23Zm205.75-25.74a12.22,12.22,0,0,1-8.57-20.92l.77-.77a113.39,113.39,0,0,0,12.61-15,12.22,12.22,0,1,1,20,14A138.12,138.12,0,0,1,349.94,389l-.9.9A12.17,12.17,0,0,1,340.46,393.43ZM86.68,382a12.18,12.18,0,0,1-9.22-4.2,139.33,139.33,0,0,1-14.67-20.35,12.22,12.22,0,0,1,21-12.45,114.48,114.48,0,0,0,12.07,16.76A12.22,12.22,0,0,1,86.68,382Zm138.81-23.93c-2.06,0-4.14-.05-6.21-.16a12.21,12.21,0,1,1,1.21-24.4,94.29,94.29,0,0,0,20.19-1.11,12.22,12.22,0,0,1,4.08,24.09A115.48,115.48,0,0,1,225.49,358.05Zm-42.71-8.33a12.28,12.28,0,0,1-4.72-1,89,89,0,0,1-22.74-13.54A12.21,12.21,0,1,1,171,316.48a64.82,64.82,0,0,0,16.52,9.75,12.22,12.22,0,0,1-4.72,23.49Zm189.28-7.85A12.22,12.22,0,0,1,360.4,326a116.88,116.88,0,0,0,4.41-20.24,12.22,12.22,0,0,1,24.24,3.09,141.45,141.45,0,0,1-5.34,24.47A12.21,12.21,0,0,1,372.06,341.87ZM277,341.1A12.22,12.22,0,0,1,268.64,320l.79-.76a155.81,155.81,0,0,0,13.22-14.84,12.22,12.22,0,0,1,19.32,15A179.33,179.33,0,0,1,286.7,336.5l-1.33,1.3A12.2,12.2,0,0,1,277,341.1ZM58.54,328.34a12.24,12.24,0,0,1-11.77-8.95,185.07,185.07,0,0,1-4.94-24A12.22,12.22,0,1,1,66,292a159.85,159.85,0,0,0,4.28,20.82,12.23,12.23,0,0,1-11.77,15.5Zm83.8-21.69a12.22,12.22,0,0,1-11.59-8.38,99.39,99.39,0,0,1-4.8-25.59,12.22,12.22,0,1,1,24.39-1.41,75.44,75.44,0,0,0,3.6,19.31A12.22,12.22,0,0,1,146.19,306,12.36,12.36,0,0,1,142.34,306.65Zm166.55-16.56a12.2,12.2,0,0,1-12.06-14.27,34.56,34.56,0,0,0,.51-5.83,30.19,30.19,0,0,0-1.85-10.51,12.22,12.22,0,0,1,23-8.33A55.06,55.06,0,0,1,321.78,270a59.16,59.16,0,0,1-.86,9.94A12.21,12.21,0,0,1,308.89,290.09Zm67.52-8.63a12.23,12.23,0,0,1-12.07-10.39,133.38,133.38,0,0,0-4.75-20.42,12.22,12.22,0,1,1,23.29-7.38,157.13,157.13,0,0,1,5.62,24.15,12.21,12.21,0,0,1-10.25,13.91A12.85,12.85,0,0,1,376.41,281.46ZM52.47,267.81c-.23,0-.46,0-.69,0a12.22,12.22,0,0,1-11.52-12.88,231.28,231.28,0,0,1,2.64-24.06,12.22,12.22,0,0,1,24.12,4,203.51,203.51,0,0,0-2.36,21.48A12.21,12.21,0,0,1,52.47,267.81Zm160.22-5.5a12.21,12.21,0,0,1-12-14.73A45.28,45.28,0,0,1,216.2,221.3a12.22,12.22,0,0,1,15.58,18.83,21.1,21.1,0,0,0-7.15,12.48A12.22,12.22,0,0,1,212.69,262.31Zm-69.79-15.8a12.25,12.25,0,0,1-11.68-15.81,125.93,125.93,0,0,1,9.84-23.36,12.22,12.22,0,0,1,21.43,11.73,100.88,100.88,0,0,0-7.91,18.8A12.23,12.23,0,0,1,142.9,246.51Zm139.3-6.77a12.13,12.13,0,0,1-5.09-1.12A57.43,57.43,0,0,0,259,234a12.22,12.22,0,0,1,2.27-24.33,81,81,0,0,1,26,6.8,12.22,12.22,0,0,1-5.1,23.32Zm73-15.09a12.21,12.21,0,0,1-10.35-5.7,138.49,138.49,0,0,0-12.53-16.89,12.22,12.22,0,0,1,18.46-16,162.15,162.15,0,0,1,14.74,19.87,12.21,12.21,0,0,1-10.32,18.73ZM64.38,208.09a12.21,12.21,0,0,1-11.52-16.28,213,213,0,0,1,9.35-22.43,12.22,12.22,0,0,1,22,10.7,187.94,187.94,0,0,0-8.27,19.85A12.23,12.23,0,0,1,64.38,208.09Zm111.45-12a12.21,12.21,0,0,1-7.82-21.6,124.68,124.68,0,0,1,21.06-14.12,12.21,12.21,0,1,1,11.5,21.55,100.66,100.66,0,0,0-16.93,11.35A12.15,12.15,0,0,1,175.83,196.07Zm136.47-14a12.23,12.23,0,0,1-5.85-1.49,95.57,95.57,0,0,0-18.75-7.74,12.22,12.22,0,1,1,6.95-23.43,120.23,120.23,0,0,1,23.51,9.72,12.22,12.22,0,0,1-5.86,22.94Zm-81.6-11.34a12.22,12.22,0,0,1-2.29-24.22A146.19,146.19,0,0,1,253.25,144a12.22,12.22,0,1,1,.44,24.43A120.81,120.81,0,0,0,233,170.54,12.23,12.23,0,0,1,230.7,170.76Zm-137.17-16a12.22,12.22,0,0,1-9.46-19.94,139.63,139.63,0,0,1,17.5-18,12.22,12.22,0,1,1,15.83,18.61A114.61,114.61,0,0,0,103,150.24,12.2,12.2,0,0,1,93.53,154.73Zm49-34.93A12.22,12.22,0,0,1,139,95.89,90,90,0,0,1,165.06,92a12.22,12.22,0,0,1,0,24.44,65.75,65.75,0,0,0-19,2.82A12.11,12.11,0,0,1,142.52,119.8Z"/></svg>