<svg id="Layer_1" data-name="Layer 1" xmlns="http://www.w3.org/2000/svg" viewBox="0 0 429.39 463.11"><defs><style>.cls-1{fill:#fff;}</style></defs><path class="cls-1" d="M157.53,386.12H54.63a35,35,0,0,1-25-10.53h0a35,35,0,0,1-10-24.46v-174a34.89,34.89,0,0,1,10.44-24.9h0a34.87,34.87,0,0,1,24.46-10c31.54,0,107.73-.11,150.55.21,8.21.06,10.64-2.2,9.72-10.06a96,96,0,0,1,0-17.37c.3-4.55-1.52-5.45-5.68-5.43q-55.5.21-111,0c-3.6,0-5.11.9-6.36,4.47-2.94,8.47-10.37,13-17.66,11.64-8.33-1.54-13.46-7.78-14-17C58.44,81.61,62.77,77,89.62,77h135c17.58,0,22.5,5,22.52,22.79,0,12.14.23,24.3-.1,36.44-.13,4.78,1.38,6.21,6.06,6,8.27-.33,16.57-.29,24.85,0,11.83.36,17.7,6.21,18.06,18,.27,8.82.45,17.69-.06,26.49-.37,6.28,1.76,6.68,7,5.12,27-7.91,54-15.53,81.07-23.24,17.44-5,25.64,1.27,25.65,19.57q0,76.21,0,152.44c0,14.54-11.45,23.16-25.43,19.17C357,352,329.69,344.3,302.5,336.17c-5.4-1.61-6.77-.74-6.5,4.79.38,8,.13,16,.09,24-.08,15.25-5.87,21.12-20.93,21.13Q216.34,386.16,157.53,386.12Z"/></svg>