<svg id="Layer_1" data-name="Layer 1" xmlns="http://www.w3.org/2000/svg" viewBox="0 0 429.39 463.11"><defs><style>.cls-1{fill:#fff;}</style></defs><path class="cls-1" d="M398.35,47c-3.64-21.24-18.18-29.27-37.86-20.69a341.51,341.51,0,0,1-81.41,24c-73.15,12-144.85,7.83-214.58-19.22-19.18-7.44-32.73.51-35.7,21.07-10.36,72.17-5.64,143.39,15.8,213.15,15,48.8,37.36,93.83,74.35,130,31.42,30.76,68.22,49.42,113.75,43.94,37.54-4.52,66.8-24.51,91.35-51.94,35.39-39.57,55-87.16,68.42-138.2A503.58,503.58,0,0,0,398.35,47ZM67.11,156.55c-2.07-3.18-3.67-6.37-1.21-9.88,2.59-3.69,6-2.7,9.67-1.54,32.4,10.33,63.57,7.6,93.29-9.24,3.36-1.9,6.42-3.21,9.8-.41,3.54,3,2.35,6.49.88,9.81-8.69,19.52-23,32.6-39,37C109.44,189.91,81.78,179,67.11,156.55ZM307.19,355.88c-3.21,2.53-5.49-1.1-7.91-2.49-54.91-31.37-110.22-31.73-166-2.43-2.27,1.21-4.47,4.19-7.26,1.69-2.16-2-.67-4.67.14-7,11.64-33,34.25-54.38,65.31-63.69C242,269.31,293.17,299.17,307,347.48,307.71,350.15,310.26,353.44,307.19,355.88ZM359.29,165c-32.08,38.13-90.24,28.85-109-17.35-1.44-3.56-3-7.29.63-10.63,4.18-3.81,7.57-.91,11.1,1.19,26.17,15.76,54.21,20.05,84,13.78,1.32-.34,2.64-.72,4-1,4.59-.91,9.75-4.74,13.43,1.06C367,157.56,362.39,161.29,359.29,165Z"/></svg>