<svg id="Layer_1" data-name="Layer 1" xmlns="http://www.w3.org/2000/svg" viewBox="0 0 429.39 463.11"><defs><style>.cls-1{fill:#fff;}</style></defs><path class="cls-1" d="M388.72,407.75,230.48,247.58,218.24,260.2l158,159.91a8.82,8.82,0,0,0,12.45.07,8.78,8.78,0,0,0,.06-12.43Z"/><path class="cls-1" d="M198.46,215.15l-12.57,12.31-75.13-76.05-9.61,30.27a3.87,3.87,0,0,1-6.86,1L71.55,150.16a3.83,3.83,0,0,0-3.2-1.65l-39.71.26a3.87,3.87,0,0,1-3.11-6.21l23.94-31.67a3.86,3.86,0,0,0,.59-3.55L37.54,69.65a3.87,3.87,0,0,1,4.93-4.88L80,77.75a3.89,3.89,0,0,0,3.57-.53l32-23.56a3.86,3.86,0,0,1,6.16,3.18l-.75,39.71a3.93,3.93,0,0,0,1.62,3.22l32.28,23.12a3.87,3.87,0,0,1-1.12,6.85L123.23,139Z"/><path class="cls-1" d="M365.37,52.09,198.46,215.15l-12.57,12.31-66.22,64.68-15.5-8.88a15.14,15.14,0,0,1-5.52-5.35l-9.16-15.17c-3.95-6.55-12.26-9.14-16.31-5.07l-6.12,6.13c-4.27,4.28-1.07,13.15,6,16.75l13.32,6.78a15.22,15.22,0,0,1,6.56,6.58l14.31,28L45.19,384.22l-17.36,6.47-.66,28.71,28.7-.78,6.33-17.45,62.08-62.33,28,14.21a15.13,15.13,0,0,1,6.62,6.53l6.83,13.29c3.63,7.06,12.51,10.21,16.76,5.93l6.12-6.15c4.06-4.07,1.43-12.36-5.13-16.28l-15.21-9.1a15,15,0,0,1-5.37-5.49l-8.87-15.34,64.17-66.24,12.24-12.62L393.1,79.72,404.65,40.4Zm16.89,16.39L152.72,299a3.92,3.92,0,0,1-5.57,0,4,4,0,0,1,0-5.59L376.7,62.89a3.94,3.94,0,1,1,5.56,5.59Z"/></svg>