<svg id="Layer_1" data-name="Layer 1" xmlns="http://www.w3.org/2000/svg" viewBox="0 0 429.39 463.11"><defs><style>.cls-1{fill:#fff;}</style></defs><path class="cls-1" d="M151.09,276.84V95.3a14.56,14.56,0,0,1,12.25-14.36L395.9,43.66a6.47,6.47,0,0,1,7.53,6.27V50c0,82.3-.41,164.61.16,246.9.36,51.56-55,89.47-99.8,80-36.33-7.65-56.58-40.72-46.38-76.42,12.7-44.49,63.18-72.23,105.4-57.76a79.25,79.25,0,0,1,7.63,3.16,6.49,6.49,0,0,0,9.21-5.89V116.08a6.49,6.49,0,0,0-7.49-6.41c-11.67,1.82-23.23,3.61-34.78,5.46-51.91,8.36-103.81,16.86-155.76,25-5.86.92-7.22,3-7.21,8.57.19,60.91-.7,121.83.36,182.72,1,54.24-55.94,91.77-100.85,82.27-34.78-7.36-55.1-40.09-45.92-75C39.75,294,90.81,265.07,133.25,279.19a82.74,82.74,0,0,1,8.61,3.53A6.49,6.49,0,0,0,151.09,276.84Z"/></svg>