<svg id="Layer_1" data-name="Layer 1" xmlns="http://www.w3.org/2000/svg" viewBox="0 0 429.39 463.11"><defs><style>.cls-1{fill:#fff;}</style></defs><path class="cls-1" d="M244.18,72.49c-29.55,7.75-49.2,28.59-69.34,49.15-2.87,2.93-.68,5.11.57,7.5,32.77,63,80.88,110.74,143.59,144,4,2.13,6.45,2.05,9.66-1.42,7.27-7.9,15.32-15.1,22.54-23C369.82,228.17,379.31,204,379.46,184,379.05,105.13,312.75,54.51,244.18,72.49Zm92.45,119.32c-9.15.67-15.58-5.62-16.82-16.46-3.28-28.55-18.24-43.45-46.8-46.61-10.55-1.15-17.14-7.91-16.57-17S264.45,96.79,275,97c40.11.63,73.72,34,75.88,75.26C351.52,183.74,346.15,191.13,336.63,191.81Z"/><path class="cls-1" d="M402.07,356.59c-2.26,17.64-13.14,27.17-31,29-27.59,2.83-52.36-6.76-76.4-18.28-60.31-28.93-109.58-72-153.21-122-31.36-35.88-58.32-74.69-74.33-120.1C60.87,107.58,56,89.49,59.61,70.5,63,52.66,73.23,43.77,91.34,42.08a92,92,0,0,1,27.34,1.6c22.78,4.74,43.81,13.74,63.5,24.58-13,13.54-25.38,26.66-38.1,39.43-6.74,6.78-7.8,13.9-3.74,22.35,38.43,80.19,97.36,139.81,178,177.84,9.07,4.27,16.08,2.81,23-4.24,12.15-12.41,24.76-24.39,37.7-37.08C392.39,295.1,406.29,323.56,402.07,356.59Z"/><path class="cls-1" d="M41.19,421.38c-4.37-.2-9.19-2.85-12.23-8.18A14.63,14.63,0,0,1,29,397.9a22,22,0,0,1,3.47-4.46c25.63-25.68,79-79,104.61-104.64,5.13-5.14,11.13-7.27,18.07-4.59a15.23,15.23,0,0,1,10,12.79c.91,6.64-2.81,11.31-7.19,15.67C133.41,337.18,81.23,389.4,56.67,413.92a43.73,43.73,0,0,1-5,4.35C49.13,420.16,46.26,421.43,41.19,421.38Z"/><path class="cls-1" d="M169.42,421.38c-11.56.11-20.39-13.07-14-22.56,8.08-11.95,36-39.22,47.62-47.77,6.32-4.65,13.44-2.59,18.72,3.08,5,5.39,6.28,12.31,1.89,18.17-8.28,11.07-35.78,37.64-46.29,46.61A11.06,11.06,0,0,1,169.42,421.38Z"/><path class="cls-1" d="M42.69,294.65c-11.57.1-20.39-13.08-14-22.57,8.08-11.95,36-39.21,47.63-47.77,6.31-4.65,13.43-2.58,18.72,3.08,5,5.4,6.27,12.31,1.89,18.17-8.29,11.08-35.78,37.64-46.3,46.62A11,11,0,0,1,42.69,294.65Z"/></svg>