<svg id="Layer_1" data-name="Layer 1" xmlns="http://www.w3.org/2000/svg" viewBox="0 0 429.39 463.11"><defs><style>.cls-1{fill:#fff;}</style></defs><path class="cls-1" d="M177.32,180.16V386.41c-.5-.25-1-.48-1.48-.7a23,23,0,0,0-10.38-2.46c-3.36,0-8,1.25-12.29,2.77a78.35,78.35,0,0,1-38.91,3.63C107.45,388.5,101.5,386.16,98,383s-3.85-9.41-3.85-9.41c-2.83-15.49,24.75-91.91,49.57-159.47.5-1.34,1-2.67,1.47-4v41.41a15.32,15.32,0,1,0,30.64,0V180.16Z"/><path class="cls-1" d="M335.23,373.61s-.36,6.26-3.85,9.41-9.42,5.48-16.25,6.63A78.35,78.35,0,0,1,276.22,386c-4.31-1.52-8.92-2.77-12.29-2.77a22.33,22.33,0,0,0-8.93,1.81l-1.47.65V180.16H255v71.39a15.33,15.33,0,1,0,30.65,0V214.16c.48,1.32,1,2.64,1.47,4C311.56,284.67,338,358.42,335.23,373.61Z"/><path class="cls-1" d="M213.7,102.86a39.68,39.68,0,1,1,39.67-39.67A39.72,39.72,0,0,1,213.7,102.86Zm0-59.35a19.68,19.68,0,1,0,19.67,19.68A19.7,19.7,0,0,0,213.7,43.51Z"/><path class="cls-1" d="M233.11,439.6A28.56,28.56,0,0,1,213.7,432a28.68,28.68,0,0,1-48.11-21.1V266.18a25,25,0,0,1-6.8.93,25.35,25.35,0,0,1-25.32-25.32V149.54a41.28,41.28,0,0,1,39.47-41.34c.41,0,.8,0,1.18,0h79.39a41.64,41.64,0,0,1,40.41,41.38v92.25a25.35,25.35,0,0,1-25.32,25.32,25.09,25.09,0,0,1-6.8-.93V410.91A28.72,28.72,0,0,1,233.11,439.6ZM213,238.64h1.47a10,10,0,0,1,10,10V410.91a8.68,8.68,0,1,0,17.36,0V170.39a10,10,0,0,1,10-10h1.48a10,10,0,0,1,10,10v71.4a5.32,5.32,0,1,0,10.64,0V149.54a21.52,21.52,0,0,0-20.77-21.38H174.23l-.31,0a21.32,21.32,0,0,0-20.45,21.36v92.25a5.33,5.33,0,0,0,10.65,0v-71.4a10,10,0,0,1,10-10h1.47a10,10,0,0,1,10,10V410.91a8.69,8.69,0,0,0,17.38,0V248.64A10,10,0,0,1,213,238.64Z"/></svg>