<svg id="Layer_1" data-name="Layer 1" xmlns="http://www.w3.org/2000/svg" viewBox="0 0 429.39 463.11"><defs><style>.cls-1{fill:#fff;}</style></defs><path class="cls-1" d="M359.31,193.13V311A137,137,0,0,1,279,435.79V295.08a8.46,8.46,0,0,1,6.43-8.2l36.92-9.05a8.42,8.42,0,0,0,6.44-8.19V238.08a8.43,8.43,0,0,0-10.2-8.24l-74.48,15.88a8.42,8.42,0,0,0-6.67,8.25v62.28a15.2,15.2,0,0,1-3.18,9.29,15.17,15.17,0,0,1-24,0,15.2,15.2,0,0,1-3.18-9.29V254a8.42,8.42,0,0,0-6.67-8.25L126,229.84a8.44,8.44,0,0,0-10.2,8.24v31.56a8.44,8.44,0,0,0,6.44,8.19l36.91,9.05a8.44,8.44,0,0,1,6.44,8.2V435.79A137,137,0,0,1,85.32,311V193.13A137,137,0,0,1,183,61.9V38.83A15.93,15.93,0,0,1,198.9,22.9h46.85a16,16,0,0,1,15.94,15.93V61.9a137,137,0,0,1,97.62,131.23Z"/></svg>