<svg width="112" height="112" viewBox="0 0 112 112" fill="none" xmlns="http://www.w3.org/2000/svg">
<path d="M112 56C112 86.9279 86.9279 112 56 112C25.0721 112 0 86.9279 0 56C0 25.0721 25.0721 0 56 0C86.9279 0 112 25.0721 112 56Z" fill="#ADADAD"/>
<path d="M45.6053 31.8947C45.6053 25.8777 50.483 21 56.5 21C62.517 21 67.3947 25.8777 67.3947 31.8947V79.1053C67.3947 85.1223 62.517 90 56.5 90C50.483 90 45.6053 85.1223 45.6053 79.1053V31.8947Z" fill="white"/>
<path d="M80.1053 44.6053C86.1223 44.6053 91 49.483 91 55.5C91 61.517 86.1223 66.3947 80.1053 66.3947L32.8947 66.3947C26.8777 66.3947 22 61.517 22 55.5C22 49.483 26.8777 44.6053 32.8947 44.6053H80.1053Z" fill="white"/>
</svg>
