<svg id="Layer_1" data-name="Layer 1" xmlns="http://www.w3.org/2000/svg" viewBox="0 0 429.39 463.11"><defs><style>.cls-1{fill:#fff;}</style></defs><path class="cls-1" d="M214.57,435.79C188,436,162.28,431,137.31,422c-9.74-3.51-15.35-10.37-17.42-20.41-1.82-8.76-3.75-17.51-6.44-26.06-4.14-13.14-12.15-19.18-26-19.95-4.3-.23-8.58-.77-12.86-1.24-23.55-2.57-31.94-23.48-30.07-39.76a37.84,37.84,0,0,1,7.27-18.81c12.32-16.37,13-34,5.75-52.46-13.08-33.43-13.31-67.18-1.5-100.79,20.16-57.37,59.64-95.12,118.7-109.78,56.47-14,107.64-.83,151.31,37.74,34,30.05,52,68.63,55.43,113.81,1.61,21-3,41-10.31,60.52-6.67,17.78-5.57,34.77,6,50.62,11,15,10.32,35.09-1,48.19a30.46,30.46,0,0,1-17.34,10,112,112,0,0,1-17.22,2c-13.62.66-21.84,7-25.81,20.11a245.21,245.21,0,0,0-6.19,25.07c-2.12,11.08-8.38,18-19.07,21.75C265.92,431.16,240.69,436,214.57,435.79Zm78-200c-14.06.42-29.11,2.49-42.74,10.47a26.74,26.74,0,0,0-13,16.73c-4.21,16.25,4.09,38.07,18.3,46.92,15.55,9.68,32.75,11.95,50.38,8.28,23.16-4.82,35.61-23.52,31.9-46.85-1.88-11.8-5.94-22.55-16.68-29.52C312.47,236.45,303.27,235.88,292.53,235.75ZM137.71,319.61a76.74,76.74,0,0,0,11.27-.9c25.33-3.34,39.62-16.24,44-39.73,3-16.27-3-28.35-18-35.18-17.64-8-36.2-9.92-55.17-6.53-10.27,1.83-17.82,8-22.59,17.36a54.35,54.35,0,0,0-5.81,22.2c-.8,16.06,5.77,28.28,19.71,36.42C119.11,318,127.88,319.8,137.71,319.61ZM242.39,378c0-4.06-1.61-6.77-3.84-9.37-7-8.15-13.08-16.69-13.92-28.05-.45-5.94-6-10.15-11.82-10a11.69,11.69,0,0,0-11.62,10.73c-.45,6.7-3.05,12.44-6.57,17.95a94.25,94.25,0,0,1-8.08,10.48,11.88,11.88,0,0,0,17.13,16.43c6.89-6.21,12-6.2,18.64,0A11.94,11.94,0,0,0,242.39,378Z"/></svg>