<svg id="Layer_1" data-name="Layer 1" xmlns="http://www.w3.org/2000/svg" viewBox="0 0 429.39 463.11"><defs><style>.cls-1{fill:#fff;}</style></defs><path class="cls-1" d="M224.53,316.54H204.61a19.81,19.81,0,0,1-19.78-20c.35-37.82,19.1-73.11,52.43-90.54,21.27-11.12,33.9-27.74,34.25-52.14.43-29.69-23.92-55.5-53.79-57.79-29.08-2.24-56,20.22-59.92,50.05h0a8.45,8.45,0,0,1-8.37,7.34H107a8.38,8.38,0,0,1-8.29-9.55c1-7.4,2-14.42,3.83-21.18,14.93-54.42,63.43-88,122.18-85.11C273.93,40,320.12,82.69,329.1,134c8.51,48.62-16.05,99-59.77,121.29-17.26,8.78-25.3,22.29-25.08,41.29h0A19.71,19.71,0,0,1,224.53,316.54Z"/><path class="cls-1" d="M214.25,423.49c-20.13-.18-36.88-17.33-36.39-37.25a36.9,36.9,0,0,1,37.75-35.81c19.72.32,36.18,17.15,35.92,36.73A36.93,36.93,0,0,1,214.25,423.49Z"/></svg>