<svg id="Layer_1" data-name="Layer 1" xmlns="http://www.w3.org/2000/svg" viewBox="0 0 429.39 463.11"><defs><style>.cls-1{fill:#fff;}</style></defs><path class="cls-1" d="M326.72,234.54c0,89.27-104.05,124.43-156,186.14-.08-.12-.18-.23-.26-.35-.08.12-.18.23-.25.35-51.91-61.71-156-96.87-156-186.14,0-81.76,79.39-134.66,156-58.08l.25-.25.26.25C247.33,99.88,326.72,152.78,326.72,234.54Z"/><path class="cls-1" d="M415.09,85.56c0,40.42-47.12,56.35-70.62,84.29,0,0-.08-.1-.11-.16l-.12.16c-23.5-27.94-70.62-43.87-70.62-84.29,0-37,35.95-61,70.62-26.3l.12-.11.11.11C379.14,24.58,415.09,48.54,415.09,85.56Z"/></svg>