<svg id="Layer_1" data-name="Layer 1" xmlns="http://www.w3.org/2000/svg" viewBox="0 0 429.39 463.11"><defs><style>.cls-1{fill:#fff;}</style></defs><path class="cls-1" d="M119.51,91.13c-1.56,6.31-3.2,12.6-4.81,18.91-2.47,9.6-5,19.56-7.37,29.39-1.44,6.15-2.73,6.67-3.94,6.67l-27.45-.67c-1.88-.44-2.94-1.78-3.15-4C71.73,130,68.33,119,65,108.44c-2.67-8.62-5.44-17.53-6.86-26.52-.54-3.49-.92-7.1-1.29-10.59-.17-1.53-.33-3.08-.5-4.61,0-20.2,11.17-35.16,27.87-37.25,18.19-2.26,34.16,7.77,38,23.84C125.28,65.92,122.67,78.4,119.51,91.13Z"/><path class="cls-1" d="M139.53,393a29.69,29.69,0,0,1-6.19,10.73,28.52,28.52,0,0,1-9.83,7.32c-9.3,4-19.08,4-29.43,4-1.85,0-3.69,0-5.5,0H85.06c-2.59,0-5.27.05-7.87,0-24.95-.72-34-7.25-44.15-31.75-12.6-30.47-12.79-62.09-.56-96.7,6-17,12.67-34.09,19.13-50.63,4.43-11.36,9-23.12,13.35-34.75.67-1.79,1.11-2.43,2.2-2.43a11.84,11.84,0,0,1,2.63.5C84,203,96.86,203,109.21,199.18c2.15-.68,2.15-.68,3.25,2.43,3.8,10.78,7.16,19.45,10.53,27.28,1.23,2.83.86,5-.2,7.87C103.58,288.31,109,337.52,139,383,140.55,385.38,140.74,388.91,139.53,393Z"/><path class="cls-1" d="M383.69,354.61c0,1.6,0,3.22-.07,4.83-.25,9.11-3,16.42-8.59,23-30.26,35.52-68,52.39-115.17,51.48,38.85-31.34,51.37-75.17,63.5-117.64l1.95-6.79c5.24-18.54,10.2-36,23.47-50.18,2.85-3,3.82-3.3,4.12-3.26s1.13.29,3.28,4C374.65,291.68,383.69,322.68,383.69,354.61Z"/><path class="cls-1" d="M398.89,338.7A197.07,197.07,0,0,0,368.17,250c-1.88-2.92-1.82-3.93-1.7-4.23s1-1.09,3.06-1.7c1.45-.45,2.86-1,4.22-1.56a32.12,32.12,0,0,1,5.33-1.79,42.92,42.92,0,0,1,8.18-1c6.92,0,9.61,3.55,12.5,13.22A142.36,142.36,0,0,1,398.89,338.7Z"/><path class="cls-1" d="M386.86,224.44a55.71,55.71,0,0,0-28.59,7.8c-1.31.79-1.31.79-2.61-.79-5-6-10-11.89-15.08-17.92l-4.5-5.33c7.31-4.08,15.12-7.19,22.69-10.2l3.42-1.35c2.4-1,3.18-.89,4.43.5C373.43,204.6,381,213.39,386.86,224.44Z"/><path class="cls-1" d="M351.61,184.07l-5.31,2.39c-6.78,3-13.17,5.93-19.62,9-2.34,1.13-3.65.82-6.34-1.51-4.57-3.94-9.24-7.63-14.18-11.52l-3.51-2.78c.4-.43.82-.85,1.22-1.25,2.41-2.47,4.69-4.78,5.64-7.85,1.13-3.62,2.56-5.79,4.21-6.48,2.4-1,6.1.74,10.7,3.14C333.61,172,343.08,176.87,351.61,184.07Z"/><path class="cls-1" d="M296.64,162.73v0c-5.06,7-8,8.65-14.73,4.1-6.12-4.15-12.63-7.3-20.19-10.95l-2-1c13.44-.41,24.11.35,34.41,2.44,3.88.76,4.26,1.65,4.28,1.68S298.69,159.92,296.64,162.73Z"/><path class="cls-1" d="M271.24,178.44c-11,4.57-22.41,5.4-33.55,6.23a160.39,160.39,0,0,0-87.95,33.71A111.25,111.25,0,0,1,160,204.57c17.25-20.5,37.91-34.75,61.43-42.29l1-.35a20,20,0,0,1,6-1.32,7.86,7.86,0,0,1,2.45.38C243.08,164.92,257.25,170,271.24,178.44Z"/><path class="cls-1" d="M307.15,204c-.28,1.13-4.92,3.93-9.4,6.64l-.45.28c-55.56,33.56-103.69,81.12-147.14,145.38l-1.44,2.14c-1.13,1.67-2.26,3.35-3.39,5-17.22-31.17-22-64-14.53-100.22,1-4.86,4.16-8.46,7.49-12.28l.47-.54C166.82,218.29,203.81,201,248.69,199c12.28-.54,22.2-2.78,30.32-6.83a16.62,16.62,0,0,1,7.52-2.07c4,0,7.47,2.07,11.66,5.51l1.06.87C303.07,199.67,307.05,203,307.15,204Z"/><path class="cls-1" d="M344.11,242.43c-.26.26-.72.62-1,.87s-.55.45-.8.66c-16.68,14.57-23.8,34.29-29.67,53.25-2,6.56-3.95,13.25-5.81,19.73-5.28,18.33-10.73,37.29-18.9,54.91-11.08,24-26,42.09-45.47,55.39-4.5,3.05-7.8,3.71-12.19,2.45-28.93-8.43-53.08-24.15-71.79-46.78l-.23-.27c-2.78-3.36-3.93-4.73-1.56-8.33,46.25-70,97.45-120.49,156.57-154.43,1.79-1,3.6-2,5.49-3,.63-.35,1.27-.68,1.91-1,.25.07.49.14.53.14A214.51,214.51,0,0,1,344.11,242.43Z"/><path class="cls-1" d="M107.21,183.48c0,.62-.31,1-2.31,1.21-13.07,1.67-22.92,1.5-32.94-.54-1.37-.27-1.58-.59-1.58-.59s-.26-.43.1-2.07c1.22-5.28,2-10.59,2.75-16.22.24-1.65.47-3.32.73-5l29.41.8a163.48,163.48,0,0,1,3.81,22C107.19,183.2,107.21,183.34,107.21,183.48Z"/></svg>