<svg id="Layer_1" data-name="Layer 1" xmlns="http://www.w3.org/2000/svg" viewBox="0 0 429.39 463.11"><defs><style>.cls-1{fill:#fff;}</style></defs><path class="cls-1" d="M203.29,432.48a28.57,28.57,0,0,1-16.3-5.36c-10.1-7-14.3-17.59-11.83-29.94,3.85-19.19,13.29-35.39,23.29-52.53l5.19-8.92,4.67,8.57q2.33,4.24,4.66,8.39c8.43,15,16.38,29.17,18.9,46.26,1.85,12.55-3,22.94-13.7,29.24A29.21,29.21,0,0,1,203.29,432.48Zm.09-74.41c-7.72,13.5-14.51,26.69-17.43,41.26-1.62,8.11.76,14.24,7.28,18.73,6.26,4.31,12.77,4.53,19.35.66,6.86-4.05,9.61-10,8.41-18.17-2.23-15.08-9.7-28.39-17.61-42.48Z"/><path class="cls-1" d="M148.07,453.67a20.74,20.74,0,0,1-11.65-3.8c-8.42-5.65-11.45-14.44-8.33-24.1a159.89,159.89,0,0,1,15.26-34l4.83-8.07,4.66,8.17a166.87,166.87,0,0,1,15.09,33.85c3,9.69,0,18.48-8.27,24.11A20.43,20.43,0,0,1,148.07,453.67ZM148,406.08a154.21,154.21,0,0,0-9.44,23.07c-1.62,5-.35,8.67,4,11.59,3.77,2.53,7.24,2.55,10.91,0,4.22-2.89,5.51-6.74,4-11.78A144.42,144.42,0,0,0,148,406.08Z"/><path class="cls-1" d="M407.41,43.11l-34-33.9a11.38,11.38,0,0,0-8.08-3.33h0a11.41,11.41,0,0,0-8.13,3.41L242.42,127.2l-7.67,7.88-138,141.85L81,293.12,12.45,363.56l11,1.35a244.51,244.51,0,0,0,28.82,1.51,371.31,371.31,0,0,0,66.55-6.13c32.08-6,76.27-19.22,104.58-48.32l31.26-31.39,8.58-8.61,54.68-54.9h0a10.68,10.68,0,0,0-.44-15.06l-26.18-26.09L407.44,59.3A11.47,11.47,0,0,0,407.41,43.11ZM243.2,276.5l-27.64,27.75C172,349.05,81.65,357.62,36.14,355l66.47-68.32,12.61-3.77c10.24-3.07,22-2,29.95,2.64a47,47,0,0,0,23.43,5.9,52.94,52.94,0,0,0,17.94-3.1l30.66-11.15a42.22,42.22,0,0,1,15.73-2.39c.29,0,.58,0,.86,0s.67,0,1,.06c.53,0,1,.08,1.56.15l.35,0c.48.06,1,.13,1.43.21h0c.52.08,1,.18,1.54.29l.14,0c1.06.22,2.09.48,3.09.79h0l.26.08Z"/><path class="cls-1" d="M239.83,275.61c1.06.23,2.09.49,3.09.79C241.92,276.09,240.89,275.83,239.83,275.61Zm3.12.8.25.09h0Z"/></svg>