<svg id="Layer_1" data-name="Layer 1" xmlns="http://www.w3.org/2000/svg" viewBox="0 0 300 300"><defs><style>.cls-1{fill:none;stroke:#fff;stroke-linecap:round;stroke-linejoin:round;stroke-width:7px;}</style></defs><polyline class="cls-1" points="80 51.2 80 20 220 20 220 51.2"/><polyline class="cls-1" points="80 280 50 280 50 51.2 80 51.2"/><polyline class="cls-1" points="220 280 250 280 250 51.2 220 51.2"/><polyline class="cls-1" points="160 260 160 280 200 280 200 260"/><polyline class="cls-1" points="220 260 220 280 250 280 250 260"/><polyline class="cls-1" points="50 260 50 280 80 280 80 260"/><polyline class="cls-1" points="100 260 100 280 140 280 140 260"/><polyline class="cls-1" points="190 110 190 90 220 90 220 110"/><polyline class="cls-1" points="220 130 220 150 190 150 190 130"/><polyline class="cls-1" points="110 110 110 90 140 90 140 110"/><polyline class="cls-1" points="140 130 140 150 110 150 110 130"/></svg>