<svg id="Layer_1" data-name="Layer 1" xmlns="http://www.w3.org/2000/svg" viewBox="0 0 300 300"><defs><style>.cls-1{fill:none;stroke:#fff;stroke-linecap:round;stroke-linejoin:round;stroke-width:7px;}</style></defs><polyline class="cls-1" points="60 259.09 60 280.91 240 280.91 240 259.09"/><polyline class="cls-1" points="40 20 40 40.91 260 40.91 260 20"/><polyline class="cls-1" points="60 19.09 40 19.09 40 259.09 60 259.09"/><polyline class="cls-1" points="240 20 260 20 260 260 240 260"/><polyline class="cls-1" points="70 130 70 110 120 110 120 130"/><polyline class="cls-1" points="180 130 180 110 230 110 230 130"/><polyline class="cls-1" points="60 200 60 240 240 240 240 200"/><polyline class="cls-1" points="80 200 80 220 220 220 220 200"/></svg>