<svg id="Layer_1" data-name="Layer 1" xmlns="http://www.w3.org/2000/svg" viewBox="0 0 300 300"><defs><style>.cls-1{fill:none;stroke:#fff;stroke-linecap:round;stroke-linejoin:round;stroke-width:7px;}</style></defs><polyline class="cls-1" points="20 40 40 40 40 260 20 260"/><polyline class="cls-1" points="80 40 60 40 60 260 80 260"/><polyline class="cls-1" points="280 40 280 20 20 20 20 40"/><polyline class="cls-1" points="280 260 280 280 20 280 20 260"/><polyline class="cls-1" points="100 40 120 40 120 260 100 260"/><polyline class="cls-1" points="160 40 140 40 140 260 160 260"/><polyline class="cls-1" points="140 40 160 40 160 260 140 260"/><polyline class="cls-1" points="200 40 180 40 180 260 200 260"/><polyline class="cls-1" points="240 40 220 40 220 120 220 120"/><line class="cls-1" x1="220" y1="120" x2="220" y2="40"/><polyline class="cls-1" points="240 260 220 260 220 190 220 190"/><line class="cls-1" x1="220" y1="190" x2="220" y2="260"/><polyline class="cls-1" points="180 40 200 40 200 120 200 120"/><line class="cls-1" x1="200" y1="120" x2="200" y2="40"/><polyline class="cls-1" points="180 260 200 260 200 190 200 190"/><line class="cls-1" x1="200" y1="190" x2="200" y2="260"/><polyline class="cls-1" points="120 40 100 40 100 120 100 120"/><line class="cls-1" x1="100" y1="120" x2="100" y2="40"/><polyline class="cls-1" points="120 260 100 260 100 190 100 190"/><line class="cls-1" x1="100" y1="190" x2="100" y2="260"/><polyline class="cls-1" points="60 40 80 40 80 120 80 120"/><line class="cls-1" x1="80" y1="120" x2="80" y2="40"/><polyline class="cls-1" points="60 260 80 260 80 190 80 190"/><line class="cls-1" x1="80" y1="190" x2="80" y2="260"/><polyline class="cls-1" points="220 40 240 40 240 260 220 260"/><polyline class="cls-1" points="280 40 260 40 260 260 280 260"/><polyline class="cls-1" points="200 130 230 130 230 190 200 190"/><polyline class="cls-1" points="200 130 200 120 230 120 230 130"/><polyline class="cls-1" points="200 150 190 150 190 130 200 130"/><polyline class="cls-1" points="200 170 190 170 190 150 200 150"/><polyline class="cls-1" points="200 190 190 190 190 170 200 170"/><polyline class="cls-1" points="100 130 70 130 70 190 100 190"/><polyline class="cls-1" points="100 130 100 120 70 120 70 130"/><polyline class="cls-1" points="100 150 110 150 110 130 100 130"/><polyline class="cls-1" points="100 170 110 170 110 150 100 150"/><polyline class="cls-1" points="100 190 110 190 110 170 100 170"/></svg>