<svg id="Layer_1" data-name="Layer 1" xmlns="http://www.w3.org/2000/svg" viewBox="0 0 300 300"><defs><style>.cls-1{fill:none;stroke:#fff;stroke-linecap:round;stroke-linejoin:round;stroke-width:7px;}</style></defs><polyline class="cls-1" points="70 110 70 130 120 130 120 110"/><polyline class="cls-1" points="180 110 180 130 230 130 230 110"/><polyline class="cls-1" points="60 240 60 200 240 200 240 240"/><polyline class="cls-1" points="80 240 80 220 220 220 220 240"/><polyline class="cls-1" points="60 259.09 60 280.91 240 280.91 240 259.09"/><polyline class="cls-1" points="40 20 40 40.91 260 40.91 260 20"/><polyline class="cls-1" points="60 19.09 40 19.09 40 259.09 60 259.09"/><polyline class="cls-1" points="240 20 260 20 260 260 240 260"/></svg>