<svg id="Layer_1" data-name="Layer 1" xmlns="http://www.w3.org/2000/svg" viewBox="0 0 300 300"><defs><style>.cls-1{fill:none;stroke:#fff;stroke-linecap:round;stroke-linejoin:round;stroke-width:7px;}</style></defs><polyline class="cls-1" points="160 60 150 50 120 80 130 90"/><polyline class="cls-1" points="140 60 150 50 180 80 170 90"/><polyline class="cls-1" points="160 100 150 110 120 80 130 70"/><polyline class="cls-1" points="140 100 150 110 180 80 170 70"/><polyline class="cls-1" points="90 70 90 80 110 80 110 70"/><polyline class="cls-1" points="90 90 90 80 110 80 110 90"/><polyline class="cls-1" points="190 70 190 80 210 80 210 70"/><polyline class="cls-1" points="190 90 190 80 210 80 210 90"/><polyline class="cls-1" points="160 20 150 20 150 40 160 40"/><polyline class="cls-1" points="150 119.99 140 119.99 140 280 150 280"/><polyline class="cls-1" points="150 119.99 160 119.99 160 280 150 280"/><polyline class="cls-1" points="140 20 150 20 150 40 140 40"/><polyline class="cls-1" points="101 114.85 108.08 121.92 122.22 107.78 115.15 100.71"/><polyline class="cls-1" points="115.15 129 108.08 121.92 122.22 107.78 129.29 114.85"/><polyline class="cls-1" points="198.28 114.85 191.21 121.92 177.07 107.78 184.14 100.71"/><polyline class="cls-1" points="184.14 129 191.21 121.92 177.07 107.78 170 114.85"/><polyline class="cls-1" points="171.72 44.14 178.79 51.21 192.93 37.07 185.86 30"/><polyline class="cls-1" points="185.86 58.28 178.79 51.21 192.93 37.07 200 44.14"/><polyline class="cls-1" points="115.15 30 108.08 37.07 122.22 51.21 129.29 44.14"/><polyline class="cls-1" points="101 44.14 108.08 37.07 122.22 51.21 115.15 58.28"/></svg>