<svg id="Layer_1" data-name="Layer 1" xmlns="http://www.w3.org/2000/svg" viewBox="0 0 300 300"><defs><style>.cls-1{fill:none;stroke:#fff;stroke-linecap:round;stroke-linejoin:round;stroke-width:7px;}</style></defs><polyline class="cls-1" points="54.76 56.31 54.76 32.5 245.24 32.5 245.24 56.31"/><polyline class="cls-1" points="54.76 56.31 54.76 32.5 245.24 32.5 245.24 56.31"/><polyline class="cls-1" points="173.81 252.5 173.81 267.5 126.19 267.5 126.19 252.5"/><polyline class="cls-1" points="245.24 56.31 269.05 56.31 269.05 199.17 245.24 199.17"/><polyline class="cls-1" points="245.24 56.31 269.05 56.31 269.05 199.17 245.24 199.17"/><polyline class="cls-1" points="221.43 199.17 245.24 199.17 245.24 267.5 221.43 267.5"/><polyline class="cls-1" points="221.43 199.17 245.24 199.17 245.24 267.5 221.43 267.5"/><polyline class="cls-1" points="78.57 199.17 54.76 199.17 54.76 267.5 78.57 267.5"/><polyline class="cls-1" points="54.76 56.31 30.95 56.31 30.95 199.17 54.76 199.17"/><polyline class="cls-1" points="54.76 56.31 30.95 56.31 30.95 199.17 54.76 199.17"/><polyline class="cls-1" points="66.67 115.83 66.67 92.02 114.29 92.02 114.29 115.83"/><polyline class="cls-1" points="185.71 115.83 185.71 92.02 233.33 92.02 233.33 115.83"/><polyline class="cls-1" points="233.33 127.74 233.33 139.64 185.71 139.64 185.71 127.74"/><polyline class="cls-1" points="114.29 127.74 114.29 139.64 66.67 139.64 66.67 127.74"/><polyline class="cls-1" points="78.57 267.5 78.57 252.5 126.19 252.5 126.19 267.5"/><polyline class="cls-1" points="173.81 266.31 173.81 252.5 221.43 252.5 221.43 266.31"/><polyline class="cls-1" points="161.91 175.36 150 163.45 126.19 187.26 138.09 199.17"/><polyline class="cls-1" points="138.09 175.36 150 163.45 173.81 187.26 161.91 199.17"/></svg>