<svg id="Layer_1" data-name="Layer 1" xmlns="http://www.w3.org/2000/svg" viewBox="0 0 300 300"><defs><style>.cls-1{fill:none;stroke:#fff;stroke-linecap:round;stroke-linejoin:round;stroke-width:7px;}</style></defs><polyline class="cls-1" points="20 50 20 20 280 20 280 50"/><polyline class="cls-1" points="50 280 20 280 20 20 50 20"/><polyline class="cls-1" points="150 170 130 170 130 130.01 150 130.01"/><polyline class="cls-1" points="150 170 170 170 170 130.01 150 130.01"/><polyline class="cls-1" points="20 210 70 210 70 90.01 20 90.01"/><polyline class="cls-1" points="20 190.01 50 190.01 50 110 20 110"/><polyline class="cls-1" points="70 170.01 90 170.01 90 130 70 130"/><polyline class="cls-1" points="280 210 230 210 230 90.01 280 90.01"/><polyline class="cls-1" points="280 190.01 250 190.01 250 110 280 110"/><polyline class="cls-1" points="230 170.01 210 170.01 210 130 230 130"/><line class="cls-1" x1="150" y1="280" x2="150" y2="20"/><polyline class="cls-1" points="280 250 280 280 20 280 20 250"/><polyline class="cls-1" points="250 20 280 20 280 280 250 280"/></svg>