<svg id="Layer_1" data-name="Layer 1" xmlns="http://www.w3.org/2000/svg" viewBox="0 0 300 300"><defs><style>.cls-1{fill:none;stroke:#fff;stroke-linecap:round;stroke-linejoin:round;stroke-width:7px;}</style></defs><polyline class="cls-1" points="167.65 32.35 167.65 20.59 132.35 20.59 132.35 32.35"/><polyline class="cls-1" points="167.65 44.12 167.65 55.88 132.35 55.88 132.35 44.12"/><polyline class="cls-1" points="191.18 91.18 191.18 67.65 179.41 67.65"/><line class="cls-1" x1="155.88" y1="173.53" x2="167.65" y2="173.53"/><polyline class="cls-1" points="167.65 126.47 167.65 67.65 155.88 67.65"/><line class="cls-1" x1="132.35" y1="173.53" x2="144.12" y2="173.53"/><polyline class="cls-1" points="144.12 67.65 132.35 67.65 132.35 126.47"/><polygon class="cls-1" points="50 185.29 61.77 197.06 61.77 208.82 132.35 208.82 132.35 126.47 108.82 126.47 108.82 91.18 50 185.29"/><polygon class="cls-1" points="167.65 126.47 167.65 208.82 238.24 208.82 238.24 197.06 250 185.29 191.18 91.18 191.18 126.47 167.65 126.47"/><polyline class="cls-1" points="167.65 208.82 167.65 279.41 155.88 279.41"/><line class="cls-1" x1="155.88" y1="173.53" x2="167.65" y2="173.53"/><polyline class="cls-1" points="144.12 279.41 132.35 279.41 132.35 208.82"/><line class="cls-1" x1="132.35" y1="173.53" x2="144.12" y2="173.53"/><polyline class="cls-1" points="144.12 279.41 132.35 279.41 132.35 208.82"/><line class="cls-1" x1="132.35" y1="173.53" x2="144.12" y2="173.53"/><polyline class="cls-1" points="120.59 67.65 108.82 67.65 108.82 91.18"/></svg>