<svg id="Layer_1" data-name="Layer 1" xmlns="http://www.w3.org/2000/svg" viewBox="0 0 292.6 315.57"><defs><style>.cls-1{fill:#ff8c00;}.cls-2,.cls-3,.cls-4{fill:#fff;}.cls-2{stroke:#ff8c00;stroke-width:4px;}.cls-2,.cls-4{stroke-miterlimit:10;}.cls-4{stroke:#fff;}</style></defs><path class="cls-1" d="M235.92,270.45c7.89-10.92,15.44-20.16,17-36a57.32,57.32,0,0,0-7.13-34,48.62,48.62,0,0,0-6.56-9,43,43,0,0,0-26.5-14.12,40.16,40.16,0,0,0-21.3,3.18,34.65,34.65,0,0,0-3-8.09,39.29,39.29,0,0,0,1.32-7c1.83-18.87-10.09-35.84-26.64-37.89-13-1.61-25,6.51-30.43,19.26a37.51,37.51,0,0,0-5.45-1.06,39.34,39.34,0,0,0-7.73-.21A39.89,39.89,0,0,0,111,147a45.75,45.75,0,0,0-5.17,1.9A42.61,42.61,0,0,0,98.6,153C87,161.09,78.65,175,77,191.65c0,.33-.07.66-.09,1a21.84,21.84,0,0,0-2.31-.4c-15.88-2-30.18,11.12-31.93,29.25a33.85,33.85,0,0,0-.17,3.89,36.16,36.16,0,0,0-9.93,21.95c-.83,8.59-.66,18.09,1.67,24.23l46-1.79,109.25-1.2Z"/><polyline class="cls-2" points="80.3 271.02 36.28 210.62 97.3 215.24 73.7 52.37 135.1 192.13 176.05 125.24 172.93 215.24 283.36 180.43 189.54 270.06"/><polygon class="cls-1" points="95.45 269.98 62.05 225.68 107.02 229.06 89.62 109.58 134.88 212.12 165.07 163.04 162.76 229.06 244.17 203.52 174.31 269.98 95.45 269.98"/><polygon class="cls-3" points="111.25 270.02 90.79 242.9 118.33 244.97 107.67 171.81 135.39 234.59 153.86 204.54 152.46 244.97 202.29 229.33 159.52 270.02 111.25 270.02"/><rect class="cls-4" x="32.14" y="267.46" width="209.07" height="23"/></svg>