<svg id="Layer_1" data-name="Layer 1" xmlns="http://www.w3.org/2000/svg" viewBox="0 0 292.6 315.57"><defs><style>.cls-1{fill:#39e530;stroke:#fff;stroke-miterlimit:10;stroke-width:5px;}.cls-2{fill:#1d1d1b;}.cls-3{fill:#fff;}</style></defs><path class="cls-1" d="M143.31,117.42v72.85H27.94l3-51a24.62,24.62,0,0,1,23.63-23.26l83.89-3.56A4.94,4.94,0,0,1,143.31,117.42Z"/><path class="cls-2" d="M143.31,193.6v3.34H150V193.6Z"/><path class="cls-1" d="M265.34,190.27H150V117.42a4.92,4.92,0,0,1,4.86-4.92l83.89,3.56a24.62,24.62,0,0,1,23.63,23.26Z"/><path class="cls-2" d="M143.31,193.6v3.34H150V193.6Z"/><path class="cls-3" d="M272.41,196.94l-3.38-58a31.31,31.31,0,0,0-30-29.54l-84-3.56h-.14a11.45,11.45,0,0,0-8.25,3.47,11.57,11.57,0,0,0-8.27-3.47l-84.12,3.56a31.31,31.31,0,0,0-30,29.54l-3.36,58H143.31V193.6H150v3.34Zm-129.1-6.67H27.94l3-51a24.62,24.62,0,0,1,23.63-23.26l83.89-3.56a4.94,4.94,0,0,1,4.87,4.92ZM150,117.42a4.92,4.92,0,0,1,4.86-4.92l83.89,3.56a24.62,24.62,0,0,1,23.63,23.26l3,51H150Z"/><rect class="cls-1" x="34.89" y="184.3" width="228.16" height="45.4"/><path class="cls-1" d="M100.58,211.25H52.22a4.7,4.7,0,0,1-4.6-3.71l-4.07-18.72a10.34,10.34,0,0,1,9.86-12.39l43.86-1.07a11.89,11.89,0,0,1,12.08,13.38l-4.17,18.82A4.71,4.71,0,0,1,100.58,211.25Z"/><path class="cls-1" d="M192.6,211.34H241a4.72,4.72,0,0,0,4.6-3.71l4.07-18.73a10.35,10.35,0,0,0-9.86-12.39l-43.86-1.06a11.88,11.88,0,0,0-12.08,13.37L188,207.65A4.72,4.72,0,0,0,192.6,211.34Z"/><path class="cls-1" d="M120.36,211.34h52.55a5,5,0,0,0,5-3.71l4.42-18.81c1.39-6.29-3.73-13.2-10.71-13.37H124c-7.9-.18-14.12,6.16-13.13,13.37l4.53,18.83A5.05,5.05,0,0,0,120.36,211.34Z"/><path class="cls-1" d="M278.61,154.68l-23.83,3.1a5.68,5.68,0,0,0-4.94,5.63v71.82a3.7,3.7,0,0,0,3.7,3.71h21a3.7,3.7,0,0,0,3.67-3.24l8.62-69.79C287.61,157.94,286.61,154.15,278.61,154.68Z"/><path class="cls-1" d="M14.23,154.68l23.83,3.1A5.68,5.68,0,0,1,43,163.41v71.82a3.7,3.7,0,0,1-3.7,3.71h-21a3.71,3.71,0,0,1-3.67-3.24L6.06,165.91C5.24,157.94,6.23,154.15,14.23,154.68Z"/></svg>