<svg id="Layer_1" data-name="Layer 1" xmlns="http://www.w3.org/2000/svg" viewBox="0 0 292.6 315.57"><defs><style>.cls-1,.cls-3{fill:#3f0085;}.cls-1,.cls-2,.cls-3{stroke:#3f0085;}.cls-1,.cls-2,.cls-3,.cls-5{stroke-miterlimit:10;}.cls-1{stroke-width:7px;}.cls-2{fill:#fff;}.cls-2,.cls-3{stroke-width:4px;}.cls-4{fill:#5800b9;}.cls-5{fill:#1d1d1b;stroke:#1d1d1b;stroke-width:3px;}</style></defs><path class="cls-1" d="M280.37,16.78V50.29A7.77,7.77,0,0,1,276.54,57h0s-53.44,30.77-53.9,30.94a4.77,4.77,0,0,0-3.11,4.49V197.27a8.71,8.71,0,0,1-4,7.31L194.88,218l-1,.63-24.65,16L97.32,281.46a0,0,0,0,1-.06,0l-28.52-24a.05.05,0,0,1,0-.08l96.48-61.52a8.73,8.73,0,0,0,4-7.35V92.41a4.78,4.78,0,0,0-3.11-4.49c-.46-.17-53.9-30.94-53.9-30.94l0,0a8,8,0,0,1-3.78-6.9V16.78a10.33,10.33,0,0,1,9.16-10.4,10.13,10.13,0,0,1,11,10.07V39.7a5.91,5.91,0,0,0,2.92,5.1L160.2,61.65a16.4,16.4,0,0,0,8.1,2.27h52.19a16.4,16.4,0,0,0,8.1-2.27L257.24,44.8a5.91,5.91,0,0,0,2.92-5.1V16.45a10.13,10.13,0,0,1,11-10.07A10.34,10.34,0,0,1,280.37,16.78Z"/><path class="cls-2" d="M110.53,168.53v39.86a6.62,6.62,0,0,1-13.24,0V177.54h-.64V281.47a8.07,8.07,0,1,1-16.14,0V211.35h-.64v70.12a8.08,8.08,0,1,1-16.15,0V177.54h-.64v30.85a6.62,6.62,0,0,1-13.24,0V168.53A13.59,13.59,0,0,1,63.08,155H97.29A13.59,13.59,0,0,1,110.53,168.53Z"/><path class="cls-3" d="M80.18,148.05a13.46,13.46,0,1,1,13.46-13.46A13.48,13.48,0,0,1,80.18,148.05Zm0-26.29A12.83,12.83,0,1,0,93,134.59,12.84,12.84,0,0,0,80.18,121.76Z"/><path class="cls-4" d="M79.87,211.35v70.12a8.08,8.08,0,1,1-16.15,0V204.3h-.64v77.17a8.71,8.71,0,0,0,17.11,2.33,8.51,8.51,0,0,0,.32-2.33V211.35Z"/><path class="cls-4" d="M96.65,204.3v77.17a8.07,8.07,0,1,1-16.14,0V211.35h-.64v70.12a8.51,8.51,0,0,0,.32,2.33,8.71,8.71,0,0,0,17.1-2.33V204.3Z"/><path class="cls-5" d="M194.39,12.28a20.54,20.54,0,1,0,20.54,20.54A20.56,20.56,0,0,0,194.39,12.28Zm0,40.11A19.57,19.57,0,1,1,214,32.82,19.59,19.59,0,0,1,194.39,52.39Z"/><circle class="cls-1" cx="194.39" cy="32.82" r="19.57"/></svg>