<svg id="Layer_1" data-name="Layer 1" xmlns="http://www.w3.org/2000/svg" viewBox="0 0 292.6 315.57"><defs><style>.cls-1,.cls-2{fill:#92172b;}.cls-2,.cls-4{stroke:#92172c;}.cls-2{stroke-miterlimit:10;stroke-width:4px;}.cls-3{fill:#1d1d1b;}.cls-4{fill:#fff;stroke-linejoin:round;stroke-width:5px;}</style></defs><path class="cls-1" d="M228.27,245.09s-.25,4.26-2.62,6.4-6.41,3.73-11.05,4.51a53.21,53.21,0,0,1-26.46-2.47,28.32,28.32,0,0,0-8.36-1.88c-9.47,0-9.64,7.42-33.39,7.42h-.18c-23.75,0-23.92-7.43-33.39-7.42a28.32,28.32,0,0,0-8.36,1.88A53.21,53.21,0,0,1,78,256c-4.63-.78-8.68-2.37-11-4.51s-2.62-6.4-2.62-6.4C61.47,229.39,104.51,121.66,118.89,79a2.92,2.92,0,0,1,2.78-2h49.25a2.92,2.92,0,0,1,2.78,2C188.08,121.66,231.13,229.39,228.27,245.09Z"/><path class="cls-2" d="M146.79,67.13A21.18,21.18,0,1,1,168,46,21.21,21.21,0,0,1,146.79,67.13Zm0-41.36A20.18,20.18,0,1,0,167,46,20.21,20.21,0,0,0,146.79,25.77Z"/><path class="cls-3" d="M119.88,113.54v43.12h1V113.54Zm52.83,0v43.12h1V113.54ZM119.88,77v1h53.83V77Z"/><path class="cls-3" d="M179.85,78a22.28,22.28,0,0,0-6.14-1h-1v1h1a21.37,21.37,0,0,1,20.84,21.34v62.73a10.42,10.42,0,1,1-20.84,0V113.54h-1v48.55a11.42,11.42,0,1,0,22.84,0V99.36A22.39,22.39,0,0,0,179.85,78Z"/><path class="cls-3" d="M146.3,166.75V277.1a12.71,12.71,0,0,1-25.42,0V155.66h-1V277.1a13.71,13.71,0,0,0,26.92,3.66,13.37,13.37,0,0,0,.5-3.66V166.75Z"/><path class="cls-3" d="M172.71,155.66V277.1a12.71,12.71,0,1,1-25.41,0V166.75h-1V277.1a13.37,13.37,0,0,0,.5,3.66,13.7,13.7,0,0,0,26.91-3.66V155.66Z"/><path class="cls-3" d="M119.88,78h1V77h-1A22.28,22.28,0,0,0,98,99.36v62.73a11.42,11.42,0,0,0,22.84,0V113.54h-1v48.55a10.42,10.42,0,0,1-20.84,0V99.36A21.37,21.37,0,0,1,119.88,78Z"/><path class="cls-4" d="M194.55,99.36v62.73a10.42,10.42,0,1,1-20.84,0V113.54h-1V277.1a12.71,12.71,0,1,1-25.41,0V166.75h-1V277.1a12.71,12.71,0,0,1-25.42,0V113.54h-1v48.55a10.42,10.42,0,0,1-20.84,0V99.36A21.37,21.37,0,0,1,119.88,78h53.83A21.37,21.37,0,0,1,194.55,99.36Z"/></svg>