<svg id="Layer_1" data-name="Layer 1" xmlns="http://www.w3.org/2000/svg" viewBox="0 0 300 300"><defs><style>.cls-1{fill:none;stroke:#fff;stroke-linecap:round;stroke-linejoin:round;stroke-width:7px;}</style></defs><polyline class="cls-1" points="139.17 17.21 117.5 17.21 117.5 103.88 139.17 103.88"/><polyline class="cls-1" points="160.83 17.21 182.5 17.21 182.5 103.88 160.83 103.88"/><polyline class="cls-1" points="52.5 114.71 52.5 147.21 247.5 147.21 247.5 114.71"/><polyline class="cls-1" points="52.5 103.88 52.5 82.21 117.5 82.21 117.5 103.88"/><polyline class="cls-1" points="182.5 103.88 182.5 82.21 247.5 82.21 247.5 103.88"/><polyline class="cls-1" points="117.5 147.21 95.83 147.21 20 223.04 30.83 233.88"/><polyline class="cls-1" points="182.5 147.21 204.17 147.21 280 223.04 269.17 233.88"/><polyline class="cls-1" points="100.34 184.31 95.82 179.8 109.37 166.25 113.88 170.77"/><polyline class="cls-1" points="104.85 188.83 109.37 193.35 122.92 179.8 118.4 175.28"/><polyline class="cls-1" points="113.01 206.02 108.49 210.53 131.07 233.11 135.59 228.6"/><polyline class="cls-1" points="122.04 196.98 117.52 201.5 158.17 242.15 162.68 237.63"/><polyline class="cls-1" points="126.55 192.47 131.07 187.95 171.72 228.6 167.2 233.11"/><polyline class="cls-1" points="162.68 237.63 158.17 242.15 198.81 282.79 203.33 278.27"/><polyline class="cls-1" points="167.2 233.11 171.72 228.6 212.36 269.24 207.84 273.76"/><polyline class="cls-1" points="167.2 233.11 171.72 228.6 212.36 269.24 207.84 273.76"/><polyline class="cls-1" points="135.59 183.44 140.1 178.92 162.68 201.5 158.17 206.02"/></svg>