<svg id="Layer_1" data-name="Layer 1" xmlns="http://www.w3.org/2000/svg" viewBox="0 0 292.6 315.57"><defs><style>.cls-1{fill:#d60b86;}.cls-2{fill:none;stroke:#d60b86;stroke-linecap:round;stroke-miterlimit:10;stroke-width:16px;stroke-dasharray:15 25;}</style></defs><path class="cls-1" d="M137.66,98.14A7.3,7.3,0,0,1,135.17,88l14.14-22.94L126.14,51.25a7.3,7.3,0,0,1-2.49-10.13,7.58,7.58,0,0,1,10.28-2.53l23.19,13.8,14.15-23a7.59,7.59,0,0,1,10.3-2.53A7.32,7.32,0,0,1,184.06,37L169.9,60l23.18,13.77a7.3,7.3,0,0,1,2.49,10.14,7.59,7.59,0,0,1-10.3,2.53L162.09,72.65l-14.15,23A7.57,7.57,0,0,1,137.66,98.14Z"/><path class="cls-2" d="M117,79.1C52.13,79.1,14.76,202.35,69.38,257c43.7,43.69,119.31,46.64,163,2.94,35-35,30.36-92.15-4.59-127.11-28-28-80.38-25.35-108.34,2.61-22.38,22.38-28.58,64.17-6.21,86.54,17.9,17.9,59.84,21.48,77.73,3.58,14.32-14.32,32.73-38.64,9.75-61.1-11.58-11.33-51.63-15.84-53.18,15.08"/></svg>