<svg id="Layer_1" data-name="Layer 1" xmlns="http://www.w3.org/2000/svg" viewBox="0 0 292.6 315.57"><defs><style>.cls-1{fill:#7c7c7c;}</style></defs><path class="cls-1" d="M201.28,180c-3.15,3.3-4.64,6.57-4.55,11.13.23,11.5-.11,23,.17,34.52.1,4-1,5.83-5,6.66q-31.12,6.5-62.16,13.38c-4.13.91-6.13.44-5.62-4.5a94.91,94.91,0,0,0,0-13.28c-.24-6-4.17-9.25-10.14-8.28-5.44.89-10.81,2.19-16.24,3.19-6.13,1.13-9.91-1.74-10.1-8-.22-7.08-.06-14.17-.07-21.24,0-10.94-1.67-12.62-12.55-12.86-1.27,0-2.52-.21-4.82-.4,3.91-7.39,7.17-14.34,11.12-20.86,4.75-7.83,6.61-15.95,6.41-25.14-.53-22.61,9-40.75,27-54.1C134.93,65.28,157.25,63,180,72.57c23.13,9.75,36.45,27.86,39.8,53C222.67,146.74,215.79,164.74,201.28,180Z"/></svg>