<svg id="Layer_1" data-name="Layer 1" xmlns="http://www.w3.org/2000/svg" viewBox="0 0 292.6 315.57"><defs><style>.cls-1{fill:#00cae0;}.cls-2{fill:#fff;}</style></defs><path class="cls-1" d="M241.44,54.39v80.09a257.14,257.14,0,0,1-15,87.67c-5.11,14.08-11.43,27.67-18.84,36.36a80.47,80.47,0,0,1-61.25,27.9h0A80.44,80.44,0,0,1,85,258.51c-7.41-8.69-13.74-22.28-18.84-36.36a257.15,257.15,0,0,1-15.05-87.67V54.39c16.82-16.82,56-25.23,95.15-25.23S224.62,37.57,241.44,54.39Z"/><path class="cls-2" d="M213.47,187.39c0,17.73-30.59,45.48-68.33,45.48s-68.32-27.75-68.32-45.48,30.59,13.36,68.32,13.36S213.47,169.65,213.47,187.39Z"/><path class="cls-2" d="M62.43,138c0-9.42,16.25-24.16,36.29-24.16S135,128.57,135,138s-16.25-7.1-36.29-7.1S62.43,147.41,62.43,138Z"/><path class="cls-2" d="M157.59,138c0-9.42,16.25-24.16,36.29-24.16s36.29,14.74,36.29,24.16-16.25-7.1-36.29-7.1S157.59,147.41,157.59,138Z"/></svg>