<svg id="Layer_1" data-name="Layer 1" xmlns="http://www.w3.org/2000/svg" viewBox="0 0 292.6 315.57"><defs><style>.cls-1{fill:#273382;}</style></defs><path class="cls-1" d="M160.39,227.5c.61-16.34,9.1-31.6,25.7-42.13,2.8-1.78,4.14-3.48,3.95-6.92-.33-5.66-.07-11.36-.09-17,0-4.85,2.41-7.22,7.2-7.27a29,29,0,0,0,5.28-.08c2.6-.53,6.9,1.93,7.51-1.64.68-4,2.56-9.2-3.67-12a11.38,11.38,0,0,1-6.57-11c.23-7.81-2.07-16,4.13-23,1.92-2.19.27-5.46-3.75-5.84-13.49-1.31-23.84-15.56-21.35-29.23A5.46,5.46,0,0,0,172.06,65c-5.8,1.58-11.7,1-17.53.71-5.17-.28-9-3.27-11.71-7.8-2.58-4.32-5.06-4.26-7.33.14a15.18,15.18,0,0,1-10.74,8.31c-7.27,1.57-14.52,5.67-21.91.35a1.79,1.79,0,0,0-2.58.26,2.36,2.36,0,0,0-.33,3.17c3.34,6.07,1.89,12.67,1.87,19,0,5.49-3.2,9.45-7.9,12.25-2.32,1.38-3.93,9.91-2.41,12,1,1.43,2.53.79,3.77.73,18-.77,16.17,1.91,16.14,16.74,0,4.12,0,8.24-.11,12.35-.41,10.85-8,17.17-18.81,15.69-17.66-2.43-33.61,7.93-37.57,24.4a32.9,32.9,0,0,0,21.46,39.34,52.85,52.85,0,0,0,9.74,1.95c5.44.82,8.38,5.07,7.83,11.53-.51,5.95-4.37,9.69-9.73,9.42a53.85,53.85,0,0,1-49.44-40A53.32,53.32,0,0,1,57.5,146.3c3.55-2.28,5.21-4.49,4.85-8.78-.43-5.06-.13-10.19-.09-15.28s2.37-8.13,7.86-8c1.57,0,3.13,0,4.7,0,9.07,0,8.91,0,8.4-8.85-.15-2.53-1.52-3.18-3.25-4.2-5.11-3-7.8-7.47-7.6-13.56.12-3.53-.06-7.06,0-10.58.27-9.08,7.11-15.22,16.18-14.6,6.28.43,7.85-1.1,7.93-7.68a13.9,13.9,0,0,1,.3-2.32C99,40.37,109.36,40,118.24,37.63c6.69-1.77,12.35.6,16.32,6.28,3.35,4.78,5.33,4.69,8.59-.32,2.7-4.17,6.35-6.92,11.49-7.13,4.1-.16,8.23-.38,12.33-.19,10.43.47,16.6,8.78,14.24,18.95-1.11,4.8,2.18,8,7,6.88,7.73-1.85,13.39.42,17.52,7.13,1.85,3,3.68,6,5.31,9.12a15.14,15.14,0,0,1-.09,15.13c-2.32,4.24-.31,8.28,4.41,9,8.8,1.32,13.57,6.62,13.76,15.38.07,3.52,0,7.05,0,10.58-.05,5.32-2.23,9.92-6.9,12.14-6.2,2.94-3.21,8-3.62,12.15-.2,2,2,1.33,3.2,1.37,3.52.11,7.05,0,10.58.12,4,.14,6.25,2.39,6.29,6.29.09,8.62.33,17.27-.29,25.85s-9.08,13.92-18.64,12.59c-17.44-2.44-32.82,7.45-37.27,24-4.33,16.06,4.18,32.79,19.92,39.31,3.51,1.46,7.2,1.76,10.88,2.25,5.39.72,8.89,5.45,8.33,11.29-.59,6.18-4.6,10-10.11,9.66C182.07,283.52,160.22,260.16,160.39,227.5ZM202.8,86.81c2.8.11,3.2-.1,2-2.68a58.75,58.75,0,0,0-6.57-11.63c-2.08-2.68-5.46-6.66-7.6.44a3.18,3.18,0,0,1-2.74,1.94c-2.17.36-2.35,1.58-1.54,3.36,2,4.43,4.2,8.8,7.39,12.49,1.26,1.46,3.4,3.64,3.9-1C197.9,87.48,199.93,86.25,202.8,86.81Zm-74.66-31c-2.83-1.31-5.64-.82-6.23-3.87-.63-3.27,1.82-4.31,5.06-5.45-6.57-3.09-11.41.17-16.32,1.32-2.68.63-8.19,1.63-2.29,6.2a2.92,2.92,0,0,1,.43,3.83c-2.25,3.55.74,3.94,2.59,3.59C116.85,60.35,122.53,59.65,128.14,55.79Zm23.05-9.29c2.13,2.08,5.57,4.31,1.89,7.34s-.29,3.65,1.29,3.79c4.23.37,8.51.12,12.95.12-.5-2.31-3.07-4.37-.54-6.9,2.32-2.33,4.45-.88,6.78.45C172,43.44,159.83,41,151.19,46.5ZM92,94.33c2.93-7.4,1.76-13.38,1.6-19.67-3,1.07-4.4,4.6-7.69,2.8-2.37-1.29-2-3.62-2-6-4.62,4.34-5.25,15.76-1.14,21.88.53-3,.44-6.35,4.39-6.25C90.79,87.18,90.73,90.45,92,94.33Zm122.71,69.54c-4.39-.07-8.05,4.32-6.28,8.22a20.5,20.5,0,0,1,2.25,9.36c-.08,2.37,1.25,4.33,3.76,4.32,2.7,0,4.19-1.77,4-4.6a15.1,15.1,0,0,1,1.92-8.25C222.59,168.76,219.26,164,214.68,163.87ZM86.94,124a6.38,6.38,0,0,0-5.69,9.16,13.71,13.71,0,0,1,1.93,7.69c-.23,2.74,1,4.82,3.71,5s4.16-2,4.13-4.62a17.32,17.32,0,0,1,2-8.32C95.07,128.67,91.55,123.87,86.94,124Zm122.64,9.91c1-3.3.79-6.65,4.43-6.93,4.24-.32,4,3.57,5.12,6.44,3.34-6.69,2.69-17.74-1.25-22-1.62,6.89-5.38,5.47-10,1.6C208,120.28,206.32,126.75,209.58,133.86Z"/><path class="cls-1" d="M234.31,204.49c5.46-3.61,9.51-7.92,11.23-14.1,1.3-4.68,3.22-.94,4.33,0C271.29,208,275,241.55,258,263.83A53.24,53.24,0,0,1,227.57,284c2.14-6.89,2.62-13.18-.94-19.1-1-1.63-.4-2.2,1-3.1C252,245.73,254.63,224.73,234.31,204.49Z"/><path class="cls-1" d="M100,243.55A20.32,20.32,0,0,0,99.21,225c-1.93-3.55,1.58-3.27,3-4,18.8-10.06,23.81-34.39,10.23-50.54-1.73-2-4-3.63-6.33-5.67a25.25,25.25,0,0,0,12.62-16.37c15.55,8.76,25.21,31.88,21.88,52.08C137.16,221.48,119.86,240,100,243.55Z"/></svg>