<svg id="Layer_1" data-name="Layer 1" xmlns="http://www.w3.org/2000/svg" viewBox="0 0 289.49 315.57"><defs><style>.cls-1{fill:#d275ff;}.cls-2{fill:#fff;}</style></defs><path class="cls-1" d="M80.91,84.15A6,6,0,0,0,76.67,94.3L258,277.85a6,6,0,0,0,8.43,0,6,6,0,0,0,.05-8.43L85.15,85.92A5.93,5.93,0,0,0,81,84.15Z"/><path class="cls-1" d="M79.67,90.56l-8.14,25.66a2.63,2.63,0,0,1-4.66.7L51.47,94.85a2.62,2.62,0,0,0-2.17-1.12l-26.92.18a2.62,2.62,0,0,1-2.11-4.21L36.5,68.23a2.6,2.6,0,0,0,.39-2.41L28.4,40.27A2.63,2.63,0,0,1,31.75,37l25.44,8.8a2.65,2.65,0,0,0,2.42-.36l21.67-16a2.62,2.62,0,0,1,4.18,2.16L85,58.5a2.64,2.64,0,0,0,1.1,2.19l21.88,15.67a2.63,2.63,0,0,1-.76,4.65L81.41,88.84A2.65,2.65,0,0,0,79.67,90.56Z"/><polygon class="cls-1" points="277.28 20.43 250.65 28.37 78.51 196.55 102.02 219.91 269.45 47.09 277.28 20.43"/><rect class="cls-1" x="18.56" y="235" width="73.73" height="16.28" transform="translate(-155.97 110.85) rotate(-45.12)"/><path class="cls-1" d="M130.85,245.68l-4.15,4.17c-2.89,2.9-8.9.76-11.36-4l-4.64-9a10.28,10.28,0,0,0-4.48-4.44l-19-9.62L75.67,211.27l-9.7-19a10.31,10.31,0,0,0-4.45-4.46l-9-4.6c-4.79-2.44-7-8.45-4.07-11.35l4.15-4.17c2.75-2.75,8.38-1,11.06,3.44l6.21,10.29a10.22,10.22,0,0,0,3.74,3.62l18,10.28,11.54,11.49,10.34,17.91a10.41,10.41,0,0,0,3.65,3.72l10.31,6.16C131.82,237.3,133.6,242.92,130.85,245.68Z"/><polygon class="cls-1" points="21.38 277.37 40.84 276.84 45.26 265.14 33.51 253.44 21.83 257.91 21.38 277.37"/><path class="cls-2" d="M104.6,196.52a2.65,2.65,0,0,1-1.88-.78,2.69,2.69,0,0,1,0-3.79L258.33,35.69a2.65,2.65,0,0,1,3.77,0,2.69,2.69,0,0,1,0,3.79L106.49,195.74A2.66,2.66,0,0,1,104.6,196.52Z"/></svg>