<svg id="Layer_1" data-name="Layer 1" xmlns="http://www.w3.org/2000/svg" viewBox="0 0 292.6 315.57"><defs><style>.cls-1{fill:#069;stroke:#069;stroke-miterlimit:10;stroke-width:7px;}</style></defs><path class="cls-1" d="M155.57,212.16H143a12.51,12.51,0,0,1-12.48-12.65c.22-23.87,12.06-46.15,33.09-57.15,13.43-7,21.41-17.51,21.63-32.92.27-18.74-15.11-35-34-36.48-18.36-1.41-35.34,12.77-37.83,31.6h0a5.33,5.33,0,0,1-5.28,4.63H81.37a5.3,5.3,0,0,1-5.24-6,107.46,107.46,0,0,1,2.42-13.37C88,55.44,118.6,34.23,155.68,36.07c31.08,1.53,60.24,28.46,65.9,60.87,5.37,30.69-10.13,62.51-37.73,76.56-10.89,5.55-16,14.08-15.83,26.07h0A12.45,12.45,0,0,1,155.57,212.16Z"/><path class="cls-1" d="M149,279.67c-12.71-.11-23.28-10.94-23-23.51a23.29,23.29,0,0,1,23.83-22.61c12.44.2,22.84,10.83,22.68,23.19A23.32,23.32,0,0,1,149,279.67Z"/></svg>