<svg id="Layer_1" data-name="Layer 1" xmlns="http://www.w3.org/2000/svg" viewBox="0 0 292.6 315.57"><defs><style>.cls-1{fill:#ff6ce0;}</style></defs><path class="cls-1" d="M210.41,159.5c0,51.08-59.55,71.2-89.25,106.52l-.15-.2c0,.06-.1.13-.14.2C91.16,230.7,31.62,210.58,31.62,159.5c0-46.8,45.43-77.07,89.25-33.24l.14-.15.15.15C165,82.43,210.41,112.7,210.41,159.5Z"/><path class="cls-1" d="M261,74.24c0,23.13-27,32.24-40.42,48.24l-.06-.1a.86.86,0,0,0-.07.1C207,106.48,180,97.37,180,74.24c0-21.19,20.57-34.9,40.41-15l.07-.07.06.07C240.41,39.34,261,53.05,261,74.24Z"/></svg>