<svg id="Layer_1" data-name="Layer 1" xmlns="http://www.w3.org/2000/svg" viewBox="0 0 292.6 315.57"><defs><style>.cls-1{fill:#fff;}.cls-2{fill:#009540;}</style></defs><path class="cls-1" d="M254,225.16c-.47-19.53-8.24-36.76-17.41-53.49a7.11,7.11,0,0,1-.6-6.82c10.43-26.91,7.11-52.26-11.27-74.45-18.7-22.57-43.46-30-72.17-24.88-5.35,1-10.37,5.2-15.51,4-5.3-1.18-9.87-5.33-15-7.75-15-7.11-30.34-12.89-47.3-12.37-20.09.61-33.37,13-35.25,32.93-1.23,13.08,2,25.46,6.69,37.46,10.31,26.2,26.28,48.81,45.14,69.45,24,26.23,50.79,48.92,83.27,64.14,12.87,6,26.25,10.44,40.42,10.87,7.66.09,14.89-.86,21.43-4.6C249.88,252.06,254.38,239.74,254,225.16ZM153.72,82.39c36.12-9.47,71,17.19,71.26,58.74-.08,10.54-5.08,23.26-14.89,34-3.8,4.18-8,8-11.87,12.13-1.69,1.83-3,1.87-5.09.75-33-17.49-58.37-42.63-75.63-75.82-.66-1.26-1.81-2.41-.3-4C127.81,97.45,138.16,86.47,153.72,82.39ZM236.89,232c-1.19,9.29-6.92,14.31-16.35,15.27-14.53,1.49-27.58-3.56-40.24-9.63-31.77-15.24-57.72-37.94-80.7-64.24-16.52-18.9-30.72-39.34-39.15-63.26-3.28-9.3-5.85-18.83-3.94-28.83,1.8-9.4,7.17-14.08,16.71-15a48.4,48.4,0,0,1,14.4.84c12,2.5,23.08,7.24,33.45,13-6.86,7.13-13.37,14-20.07,20.77-3.55,3.57-4.11,7.32-2,11.77,20.24,42.24,51.28,73.64,93.74,93.67,4.78,2.25,8.47,1.48,12.1-2.23,6.4-6.54,13-12.85,19.86-19.53C231.79,199.64,239.11,214.63,236.89,232Z"/><path class="cls-2" d="M153.72,82.39c-15.56,4.08-25.91,15.06-36.52,25.89-1.51,1.54-.36,2.69.3,4,17.26,33.19,42.6,58.33,75.63,75.82,2.11,1.12,3.4,1.08,5.09-.75,3.83-4.16,8.07-8,11.87-12.13,9.81-10.78,14.81-23.5,14.89-34C224.76,99.58,189.84,72.92,153.72,82.39Zm48.7,62.85c-4.82.35-8.21-3-8.86-8.67-1.73-15-9.61-22.89-24.65-24.55-5.56-.61-9-4.17-8.73-9s4.22-7.87,9.79-7.78c21.13.33,38.83,17.88,40,39.64C210.26,141,207.43,144.88,202.42,145.24Z"/><path class="cls-2" d="M236.89,232c-1.19,9.29-6.92,14.31-16.35,15.27-14.53,1.49-27.58-3.56-40.24-9.63-31.77-15.24-57.72-37.94-80.7-64.24-16.52-18.9-30.72-39.34-39.15-63.26-3.28-9.3-5.85-18.83-3.94-28.83,1.8-9.4,7.17-14.08,16.71-15a48.4,48.4,0,0,1,14.4.84c12,2.5,23.08,7.24,33.45,13-6.86,7.13-13.37,14-20.07,20.77-3.55,3.57-4.11,7.32-2,11.77,20.24,42.24,51.28,73.64,93.74,93.67,4.78,2.25,8.47,1.48,12.1-2.23,6.4-6.54,13-12.85,19.86-19.53C231.79,199.64,239.11,214.63,236.89,232Z"/><path class="cls-2" d="M46.8,266.16a8,8,0,0,1-6.44-4.31,7.72,7.72,0,0,1,0-8.06,11.52,11.52,0,0,1,1.83-2.35c13.5-13.52,41.59-41.59,55.1-55.11,2.71-2.71,5.86-3.83,9.52-2.42a8,8,0,0,1,5.26,6.74c.47,3.49-1.48,5.95-3.79,8.25C95.38,221.81,67.89,249.31,55,262.23a22.73,22.73,0,0,1-2.62,2.29A8.3,8.3,0,0,1,46.8,266.16Z"/><path class="cls-2" d="M114.35,266.16c-6.1.06-10.74-6.89-7.36-11.88,4.25-6.3,19-20.66,25.08-25.17,3.33-2.44,7.08-1.36,9.86,1.63,2.65,2.84,3.31,6.48,1,9.57-4.37,5.83-18.85,19.82-24.39,24.55A5.77,5.77,0,0,1,114.35,266.16Z"/><path class="cls-2" d="M47.59,199.41c-6.09.05-10.74-6.89-7.36-11.89,4.26-6.29,19-20.65,25.08-25.16,3.33-2.45,7.08-1.36,9.87,1.62,2.64,2.84,3.3,6.49,1,9.57-4.36,5.84-18.85,19.83-24.38,24.56A5.9,5.9,0,0,1,47.59,199.41Z"/><path class="cls-1" d="M202.42,145.24c-4.82.35-8.21-3-8.86-8.67-1.73-15-9.61-22.89-24.65-24.55-5.56-.61-9-4.17-8.73-9s4.22-7.87,9.79-7.78c21.13.33,38.83,17.88,40,39.64C210.26,141,207.43,144.88,202.42,145.24Z"/></svg>