<svg id="Layer_1" data-name="Layer 1" xmlns="http://www.w3.org/2000/svg" viewBox="0 0 292.6 315.57"><defs><style>.cls-1{fill:#61130e;}.cls-2{fill:#f2f2f5;}</style></defs><path class="cls-1" d="M259.33,34c0-2.2-.74-3.91-2.77-4.67-1.86-.7-3.43.22-4.74,1.59-1.11,1.16-2.26,2.27-3.38,3.4q-59.19,59.49-118.39,119Q82.86,200.65,35.65,248c-4.75,4.77-4.75,5.52,0,10.33q9.38,9.45,18.8,18.87c4.92,4.92,5.49,4.95,10.26.16C84,258,108.29,233.64,127.59,214.26c.75-.76,1.52-1.5,2.22-2.3.09-.1.17-.21.25-.31q8.88,8.91,17.75,17.8c5.67,5.7,5.91,5.71,11.75-.15q32.52-32.66,65.05-65.31a96.85,96.85,0,0,0,21.07-31.63C256,107.67,258,81.56,259.31,53.79,259.31,48.18,259.27,41.08,259.33,34ZM124,206.54c-.91.84-1.76,1.75-2.64,2.63-17.92,18-40.86,40.91-58.66,59-2.43,2.48-3.74,2.58-6,0A142.79,142.79,0,0,0,45,256.5c-2.7-2.39-2.92-3.75-.17-6.48q29.5-29.25,58.61-58.93c2.77-2.84,4-2.33,6.49.16q7.26,7.44,14.61,14.81A6.05,6.05,0,0,0,124,206.54ZM246.12,104.25c-4.77,22.74-14.42,42.59-31.7,58.88-18.86,17.78-36.72,36.62-55,55-6,6-6,6-12.6-1.41,12.61-2.09,16.22-10.46,16.81-21.52a57.05,57.05,0,0,1,4-19.18c2.21-5.25,5.78-8.48,11.66-9.66,11.47-2.29,23-4.67,31.27-14.25,5.6-6.45,8.8-14,11.53-21.92,3.94-11.4,9.33-21.88,19.82-28.8,1.28-.84,2.64-2.66,4.15-1.61S246.43,102.75,246.12,104.25Zm2.79-17.85a3.94,3.94,0,0,1-2.65,3.49c-16.88,7.3-26.15,21-31.75,37.81a74.88,74.88,0,0,1-5.25,12.72c-6,10.73-16,14.87-27.25,17.38-16.85,3.76-22.42,9.94-25,27-.8,5.25-1.56,10.51-2.1,15.8-.47,4.68-3.43,6.71-7.5,7.78-3.89,1-7.45,2.41-11.06-1.56-6.92-7.61-14.36-14.75-21.71-21.95-2-1.92-1.91-3,0-5q67.53-67.62,134.94-135.35a19.66,19.66,0,0,1,1.8-1.23C251,58.25,250.89,72.37,248.91,86.4Z"/><path class="cls-1" d="M124.52,206.06a6.05,6.05,0,0,0-.57.48c-.91.84-1.76,1.75-2.64,2.63-17.92,18-40.86,40.91-58.66,59-2.43,2.48-3.74,2.58-6,0A142.79,142.79,0,0,0,45,256.5c-2.7-2.39-2.92-3.75-.17-6.48q29.5-29.25,58.61-58.93c2.77-2.84,4-2.33,6.49.16Q117.17,198.69,124.52,206.06Z"/><path class="cls-1" d="M212.35,247.69c.07,12.87-9.82,22-21.21,21.22-11.1-.77-19.95-11.77-17.85-22.71,2.45-12.75,9.14-23.64,16.07-34.33,1.63-2.51,4.64-2.9,6.28-.46C203.43,223,210.55,235,212.35,247.69Zm-19.69-26.33c-4.79,8.78-10,16.68-11.38,26.18-.73,5,1,9.12,5.48,11.75a11,11,0,0,0,12.52-.42c4.18-2.89,5.75-7,4.74-12.07C202.19,237.65,197.57,229.79,192.66,221.36Z"/><path class="cls-1" d="M224.13,225.59A15.34,15.34,0,0,1,209,206.17c2.33-9,6.82-17,11.27-25,2.09-3.77,5.29-3.86,7.39-.19,4.73,8.27,9.41,16.64,11.54,26.05A15.19,15.19,0,0,1,224.13,225.59ZM224,191.28a80.43,80.43,0,0,0-7.24,16.23,7.42,7.42,0,0,0,3,8.89,7.06,7.06,0,0,0,8.47,0,7.24,7.24,0,0,0,3.05-8.85A76.47,76.47,0,0,0,224,191.28Z"/><path class="cls-2" d="M251.38,43.34c-.41,14.91-.49,29-2.47,43.06a3.93,3.93,0,0,1-2.65,3.49c-16.88,7.3-26.15,21-31.75,37.81a74.55,74.55,0,0,1-5.25,12.72c-6,10.73-16,14.87-27.25,17.38-16.85,3.76-22.42,9.95-25,27-.8,5.25-1.56,10.52-2.1,15.8-.48,4.68-3.44,6.71-7.5,7.78-3.89,1-7.45,2.41-11.06-1.56-6.93-7.6-14.36-14.75-21.72-21.94-2-1.92-1.9-3,0-5q67.53-67.62,134.93-135.35A19.58,19.58,0,0,1,251.38,43.34Z"/><path class="cls-1" d="M146.81,216.72c12.61-2.09,16.22-10.46,16.81-21.51a56.71,56.71,0,0,1,4-19.18c2.21-5.26,5.78-8.49,11.66-9.67,11.47-2.29,23-4.67,31.27-14.25,5.6-6.45,8.79-14,11.53-21.92,3.94-11.4,9.33-21.88,19.82-28.8,1.28-.84,2.64-2.66,4.15-1.61s.4,3,.09,4.47c-4.77,22.74-14.42,42.6-31.7,58.88-18.86,17.78-36.72,36.62-55,55C153.41,224.16,153.42,224.17,146.81,216.72Z"/><path class="cls-1" d="M192.66,221.36c4.91,8.43,9.53,16.29,11.36,25.44,1,5-.56,9.18-4.74,12.07a11,11,0,0,1-12.52.42c-4.46-2.63-6.21-6.77-5.48-11.75C182.68,238,187.87,230.14,192.66,221.36Z"/><path class="cls-1" d="M224,191.28a76.47,76.47,0,0,1,7.31,16.27,7.24,7.24,0,0,1-3.05,8.85,7.06,7.06,0,0,1-8.47,0,7.42,7.42,0,0,1-3-8.89A80.43,80.43,0,0,1,224,191.28Z"/></svg>