<svg id="Layer_1" data-name="Layer 1" xmlns="http://www.w3.org/2000/svg" viewBox="0 0 292.6 315.57"><defs><style>.cls-1{fill:#689a2f;}</style></defs><path class="cls-1" d="M195.1,133.44H67.23L82.15,97.29a11.32,11.32,0,0,1,10.47-7h14.59V80.89a5.63,5.63,0,0,1,5.64-5.64h37a5.63,5.63,0,0,1,5.64,5.64V90.3h14.87a11.32,11.32,0,0,1,10.53,7.16Z"/><path class="cls-1" d="M250,172.33H43.45a7.18,7.18,0,0,1-6.61-10l8.55-20.13a5.62,5.62,0,0,1,5.18-3.43H241.13a5.63,5.63,0,0,1,5,3.06l10.28,20A7.18,7.18,0,0,1,250,172.33Z"/><path class="cls-1" d="M286.73,98.26v21.08a4,4,0,0,1-4,4h-19a4,4,0,0,1-3.88-3H195.1l-8.42-23.16h73.17a4,4,0,0,1,3.88-3h19a4,4,0,0,1,3.86,3A4,4,0,0,1,286.73,98.26Z"/><path class="cls-1" d="M286.73,97.22v1a4,4,0,0,0-.14-1Z"/><path class="cls-1" d="M286.59,120.38a4,4,0,0,0,.14-1v1Z"/><path class="cls-1" d="M43.39,209.74a4.27,4.27,0,1,1-4.27-4.26A4.28,4.28,0,0,1,43.39,209.74Z"/><path class="cls-1" d="M92.91,205.48a4.27,4.27,0,1,0,4.26,4.26A4.27,4.27,0,0,0,92.91,205.48Zm0,0a4.27,4.27,0,1,0,4.26,4.26A4.27,4.27,0,0,0,92.91,205.48Zm0,0a4.27,4.27,0,1,0,4.26,4.26A4.27,4.27,0,0,0,92.91,205.48Zm53.25,0a4.27,4.27,0,1,0,4.27,4.26A4.27,4.27,0,0,0,146.16,205.48Zm53.17,0a4.27,4.27,0,1,0,4.27,4.26A4.27,4.27,0,0,0,199.33,205.48Zm0,0a4.27,4.27,0,1,0,4.27,4.26A4.27,4.27,0,0,0,199.33,205.48Zm-53.17,0a4.27,4.27,0,1,0,4.27,4.26A4.27,4.27,0,0,0,146.16,205.48Zm-53.25,0a4.27,4.27,0,1,0,4.26,4.26A4.27,4.27,0,0,0,92.91,205.48Zm163.25-26.32H36.45a30.59,30.59,0,0,0,0,61.17H256.16a30.59,30.59,0,0,0,0-61.17Zm-217,45.32a14.74,14.74,0,1,1,14.74-14.74A14.75,14.75,0,0,1,39.12,224.48Zm53.79,0a14.74,14.74,0,1,1,14.73-14.74A14.75,14.75,0,0,1,92.91,224.48Zm53.25,0a14.74,14.74,0,1,1,14.74-14.74A14.76,14.76,0,0,1,146.16,224.48Zm53.17,0a14.74,14.74,0,1,1,14.73-14.74A14.75,14.75,0,0,1,199.33,224.48Zm53.78,0a14.74,14.74,0,1,1,14.73-14.74A14.75,14.75,0,0,1,253.11,224.48Zm0-19a4.27,4.27,0,1,0,4.27,4.26A4.27,4.27,0,0,0,253.11,205.48Zm-53.78,0a4.27,4.27,0,1,0,4.27,4.26A4.27,4.27,0,0,0,199.33,205.48Zm-53.17,0a4.27,4.27,0,1,0,4.27,4.26A4.27,4.27,0,0,0,146.16,205.48Zm-53.25,0a4.27,4.27,0,1,0,4.26,4.26A4.27,4.27,0,0,0,92.91,205.48Zm0,0a4.27,4.27,0,1,0,4.26,4.26A4.27,4.27,0,0,0,92.91,205.48Zm53.25,0a4.27,4.27,0,1,0,4.27,4.26A4.27,4.27,0,0,0,146.16,205.48Zm0,0a4.27,4.27,0,1,0,4.27,4.26A4.27,4.27,0,0,0,146.16,205.48Zm-53.25,0a4.27,4.27,0,1,0,4.26,4.26A4.27,4.27,0,0,0,92.91,205.48Z"/></svg>