<svg id="Layer_1" data-name="Layer 1" xmlns="http://www.w3.org/2000/svg" viewBox="0 0 292.6 315.57"><defs><style>.cls-1,.cls-2{fill:#a58d00;}.cls-2{stroke:#fff;stroke-miterlimit:10;stroke-width:11px;}</style></defs><path class="cls-1" d="M248.53,230.71a15,15,0,0,1-19.05-12.07c-.77-4.14-2.61-5-6.33-5q-20.75,0-41.5-.39c-3.12-.06-4.78,1.08-6.24,3.74q-10.12,18.38-20.6,36.53c-1.68,2.92-1.75,4.66,1.23,7.06a15.25,15.25,0,0,1,1.47,22.59,15.43,15.43,0,0,1-22.68.05,15.26,15.26,0,0,1,1.35-22.59c2.86-2.32,3.1-4,1.36-7q-10.6-18.37-20.83-37c-1.41-2.56-3.12-3.41-6-3.36-14,.24-28,.4-42,.38-3.65,0-5.15,1.16-5.9,4.89-1.89,9.35-10.34,14.52-19,12.18a15.53,15.53,0,0,1-11-19.89c2.68-8.45,11.58-12.69,20.61-9.43,3,1.08,4.49.46,6-2.16,7.21-12.37,14.67-24.59,21.72-37a8,8,0,0,0,0-6.66c-7-12.31-14.37-24.37-21.44-36.62-1.74-3-3.27-3.74-6.7-2.41a15.23,15.23,0,0,1-19.78-8.65A15.52,15.52,0,0,1,61,94,16.85,16.85,0,0,1,63.09,100c.39,2.89,1.68,4,4.55,4,14.66.06,29.33.33,44,.26a6.37,6.37,0,0,0,4.62-2.72C123.61,88.88,130.61,76,138,63.35c2.18-3.75-.46-4.94-2.48-6.85A15.57,15.57,0,0,1,154,31.71c6.76,3.94,9.74,12.47,6.46,19.48a19.62,19.62,0,0,1-4.85,6.21c-2.11,1.86-2.72,3.34-1.24,5.93,7.27,12.71,14.3,25.56,21.69,38.2a7.1,7.1,0,0,0,5.11,2.73c7.16.3,14.33.12,21.5.12V104c6.67,0,13.34-.16,20,.06,4,.13,6.13-.77,6.94-5.41A15,15,0,0,1,248,86.82,15.59,15.59,0,0,1,259.7,105.9a15.26,15.26,0,0,1-20.35,10.61c-3.75-1.4-5.24-.29-7,2.78Q222,137.24,211.23,155c-1.69,2.78-1.79,4.88-.07,7.71q10.91,17.91,21.37,36.09c1.71,3,3.26,3.82,6.71,2.55,8.82-3.25,17.81,1.35,20.32,9.95A15.49,15.49,0,0,1,248.53,230.71Z"/><path class="cls-2" d="M197.54,159.16c.06,28.22-23,51.08-51.47,51.06-28.72,0-51.15-22.61-51.3-51.66-.15-28,22.62-50.78,51-51C174.56,107.25,197.48,130.08,197.54,159.16Z"/><path class="cls-2" d="M145.59,176.89l-15,7.91a1.2,1.2,0,0,1-1.74-1.27l2.87-16.75a1.19,1.19,0,0,0-.34-1.06l-12.17-11.86a1.2,1.2,0,0,1,.66-2.05l16.82-2.44a1.21,1.21,0,0,0,.9-.66l7.53-15.24a1.2,1.2,0,0,1,2.15,0l7.52,15.24a1.21,1.21,0,0,0,.9.66l16.82,2.44a1.2,1.2,0,0,1,.67,2.05L161,165.72a1.17,1.17,0,0,0-.35,1.06l2.87,16.75a1.2,1.2,0,0,1-1.74,1.27l-15-7.91A1.17,1.17,0,0,0,145.59,176.89Z"/></svg>