<svg id="Layer_1" data-name="Layer 1" xmlns="http://www.w3.org/2000/svg" viewBox="0 0 292.6 315.57"><defs><style>.cls-1{fill:#0000e0;}.cls-2{fill:#fff;}</style></defs><path class="cls-1" d="M241,54.39v80.09a257.14,257.14,0,0,1-15,87.67c-5.11,14.08-11.43,27.67-18.84,36.36a80.47,80.47,0,0,1-61.25,27.9h0a80.46,80.46,0,0,1-61.25-27.9c-7.41-8.69-13.73-22.28-18.84-36.36a257.15,257.15,0,0,1-15-87.67V54.39c16.83-16.82,56-25.23,95.15-25.23S224.19,37.57,241,54.39Z"/><path class="cls-2" d="M77.54,227.4c0-17.73,30.59-45.48,68.33-45.48s68.32,27.75,68.32,45.48S183.6,214,145.87,214,77.54,245.14,77.54,227.4Z"/><path class="cls-2" d="M135.16,116.74c0,9.42-16.25,24.15-36.29,24.15s-36.29-14.73-36.29-24.15,16.25,7.1,36.29,7.1S135.16,107.32,135.16,116.74Z"/><path class="cls-2" d="M230.32,116.74c0,9.42-16.25,24.15-36.29,24.15s-36.29-14.73-36.29-24.15,16.24,7.1,36.29,7.1S230.32,107.32,230.32,116.74Z"/></svg>