<svg id="Layer_1" data-name="Layer 1" xmlns="http://www.w3.org/2000/svg" viewBox="0 0 292.6 315.57"><defs><style>.cls-1,.cls-2{fill:#6d00a2;}.cls-1,.cls-2,.cls-3{stroke:#fff;stroke-miterlimit:10;stroke-width:4px;}.cls-2{stroke-linecap:round;}.cls-3{fill:#fff;}</style></defs><path class="cls-1" d="M248.21,131c0,33.42-16.07,72.25-40.91,90.83v45.61a19,19,0,0,1-19,19H172.87a6.25,6.25,0,0,1-6.23-6.25,6.25,6.25,0,0,1-6.24,6.25H132.21a6.24,6.24,0,0,1-6.23-6.25,6.25,6.25,0,0,1-6.25,6.25H104.28a19,19,0,0,1-19-19V221.82C60.45,203.24,44.38,164.42,44.38,131a102,102,0,0,1,80-99.54L142,51.83a.16.16,0,0,1,0,.23L125.29,67.42a.17.17,0,0,0,0,.2l26.84,48.16a.17.17,0,0,0,.31-.12L141.3,69.05a.16.16,0,0,1,.06-.17L162.09,52a.17.17,0,0,0,0-.21L149.88,29.16A101.9,101.9,0,0,1,248.21,131Z"/><line class="cls-2" x1="125.98" y1="280.16" x2="125.98" y2="235.21"/><line class="cls-2" x1="166.63" y1="280.16" x2="166.63" y2="235.21"/><path class="cls-3" d="M130.94,150.53l-19.55,4a27.52,27.52,0,0,1-32.53-21.4l-3-14.68a7.41,7.41,0,0,1,.11-3.48,6.05,6.05,0,0,1,8.9-3.43l47.72,27.74c4.7,2.73,3.81,10-1.49,11.18Z"/><path class="cls-3" d="M161.66,150.53l19.55,4a27.54,27.54,0,0,0,32.54-21.4l3-14.68a7.41,7.41,0,0,0-.11-3.48,6,6,0,0,0-8.89-3.43l-47.73,27.74c-4.69,2.73-3.81,10,1.49,11.18Z"/><path class="cls-3" d="M150,198.3a7.27,7.27,0,0,0-7.48,0l-8.45,5a3.06,3.06,0,0,1-4.17-4.22L143.7,169a3.06,3.06,0,0,1,5.21,0l13.76,30.17a3.06,3.06,0,0,1-4.18,4.22Z"/></svg>