<svg id="Layer_1" data-name="Layer 1" xmlns="http://www.w3.org/2000/svg" viewBox="0 0 292.6 315.57"><defs><style>.cls-1{fill:#fcea0d;}</style></defs><path class="cls-1" d="M280.89,57.29C256,119,233,177.08,209.12,234.61,201.05,254,186.85,263.87,168.33,256c-16.61-7.1-25.62-22.7-22.17-43.57,3.58-21.63,16.41-33.68,35.52-31.92,9,.83,13.59-1.49,17.17-11.09,8.68-23.23,18.09-46.07,28.87-73.24-31,0-59.58.25-88.2-.13-10.28-.14-11.65,9.44-14.68,16.92-16.11,39.64-31.54,79.66-48,119.1-10.23,24.54-28.84,33-46,22.09C17.06,245.34,9.4,231.4,12.31,212.85c3-19.31,14.12-33.68,30.77-32,15.86,1.63,20.63-7,25.79-20.78,9.94-26.53,22.34-51.9,30.86-79,6.44-20.47,16.57-24.76,33.67-24.28C181.33,58.17,229.31,57.29,280.89,57.29Z"/></svg>