<svg id="Layer_1" data-name="Layer 1" xmlns="http://www.w3.org/2000/svg" viewBox="0 0 292.6 315.57"><defs><style>.cls-1{fill:#fff;}.cls-2{fill:#edc1ae;}</style></defs><path class="cls-1" d="M268.77,255.23c-33.32,35.28-91.92,39-129.92-1.69-5.13,14.91-16.59,18.21-29.82,18.38-7,.1-14,.5-21-.82-7.73-1.49-14.5-4.42-19.78-11.65-4.07,13.92-12.57,23.22-26.2,26.53a33,33,0,0,1-25.95-4.39C-.11,271.38-4.72,249.48,6,233.11c10.9-16.63,32.29-19.73,51.42-6.81C55.49,198.88,67.66,175.67,77,151.67c1.24-3.16,2.33-6.37,3.57-9.52,6.93-17.69,7.26-35.43.68-53.31A76.29,76.29,0,0,1,76.4,61.25c.22-14.55,11.23-26,25.58-26.51,14.89-.5,26.71,10,27.74,24.82.82,11.65-2.53,22.62-6,33.43-6.52,20-5.25,39.22,4.41,58.7,17.2-27.66,41.47-43.2,73.92-44.43,24.64-.93,46,7.72,63.67,24.64C300.19,164.86,301.3,220.8,268.77,255.23Z"/><path class="cls-2" d="M42.12,253.62c-1.39,5.65-5.72,8.9-11.84,8.89-5.89.22-9.67-3.08-12.69-7.61-2.09-3.15-3.58-6.9-6.7-9.09s-2.84-4.3-1.33-7.44c1.95-4,4.36-2.27,6.84-1.26,4.22,1.72,8.65,1,13,1.23C37.81,238.75,43.93,246.19,42.12,253.62Z"/><path class="cls-2" d="M59.91,264.45A28.41,28.41,0,0,1,27.47,280C14.26,276.82,5.6,264.83,6.26,249.7c3.88,3.14,5.08,7.11,7.51,10.18,5.43,6.86,12.33,10.26,21.05,8.19,7.19-1.71,11.81-6.38,13.25-13.86,2.16-11.16-6.79-21.46-18.9-22-4.05-.16-8.35,1.25-12.12-1.58,11.07-10.25,25.84-7.33,34.16-1.16A28.7,28.7,0,0,1,59.91,264.45Z"/><path class="cls-2" d="M121.45,78.36c-2.31,9.27-4.8,18.5-7,27.78-.69,2.94-1.53,5-3.77,5l-15.94-.39a3.78,3.78,0,0,1-3.12-3.64C90.51,95.3,85,84.56,83.21,72.93c-.45-3-.71-5.93-1-8.89,0-12.48,6.86-21.7,17.36-23,11.07-1.37,21.11,4.8,23.51,14.86C124.85,63.47,123.29,71,121.45,78.36Z"/><path class="cls-2" d="M122.88,263.49c-6.64,2.83-13.72,2.36-20.69,2.47-2.19,0-4.4.05-6.6,0-15.34-.44-20.87-4.94-26.76-19.2-7.86-19-7-37.9-.34-56.73,5.84-16.52,12.57-32.73,18.7-49.16,1-2.77,2.48-2.58,4.56-2a39.29,39.29,0,0,0,21.87-.05c2.49-.77,3,.34,3.73,2.33,1.85,5.25,3.81,10.49,6,15.61a6.88,6.88,0,0,1-.08,5.64c-10.86,29.13-8,56.77,9.16,82.83C135.77,250.2,130.52,260.24,122.88,263.49Z"/><path class="cls-2" d="M273.5,232.47a21.6,21.6,0,0,1-5.3,14.17c-18.34,21.53-41.5,31.7-71.64,30,25.1-18.23,32.26-44.75,39.79-71.09,3.23-11.29,6.05-22.76,14.5-31.77,2.94-3.13,4.29-3.39,6.65.66C268,192.41,274.09,211.47,273.5,232.47Z"/><path class="cls-2" d="M281.66,222.63a13.32,13.32,0,0,1-.93,2.2c-.16.29-.57.44-1.07.78a111.55,111.55,0,0,0-17.81-55.34c-1.81-2.81-2-4.58,1.61-5.66,1.9-.57,3.7-1.57,5.64-2,8.47-1.69,11.19-.11,13.63,8.06A83.2,83.2,0,0,1,281.66,222.63Z"/><path class="cls-2" d="M276.31,156.29a31,31,0,0,0-18.13,4.23c-1.68,1-2.44.39-3.42-.8-4.07-4.87-8.19-9.72-12.42-14.74,5.36-3.24,11.1-5.37,16.77-7.64,1.58-.64,2.86-.83,4.22.67C268.25,143.41,272.92,149,276.31,156.29Z"/><path class="cls-2" d="M256.3,131.9c-5.68,2.59-11.09,5-16.42,7.51-2.18,1.05-3.6.37-5.27-1.08-3.62-3.12-7.41-6-11.39-9.19,1.82-2.17,4.05-3.77,4.7-5.87,2.21-7,6.11-5.19,10.7-2.81C244.79,123.65,250.91,126.86,256.3,131.9Z"/><path class="cls-2" d="M223.16,120.1c-2.82,3.9-5.43,6.19-10.54,2.72s-10.79-5.73-17.76-9.31c9.81-.65,17.88-.49,25.92,1.13C224.47,115.37,225.6,116.73,223.16,120.1Z"/><path class="cls-2" d="M210.46,128.44c-7.28,3.77-14.87,4.34-22.33,4.9a90.37,90.37,0,0,0-52.42,21.19,23.51,23.51,0,0,1-2.38,1.32,53.1,53.1,0,0,1,8.79-13.52c9.72-11.56,21.54-20.15,36-24.81,2.11-.68,4.09-1.47,6.37-.74C193.48,119.65,202.16,123.05,210.46,128.44Z"/><path class="cls-2" d="M223.1,148.23c-34.75,21-61.69,49.91-84.23,83.25-1,1.48-2,3-3,4.45a13.75,13.75,0,0,1-1.32,1.25c-11.13-19.19-13.86-39.24-9.5-60.43.69-3.33,2.82-5.66,4.92-8.06,17-19.48,38.74-29,64.33-30.09,5.86-.26,11.71-1.2,16.85-3.77s8.63-1.16,12.66,2.16C231.43,143.31,231.59,143.1,223.1,148.23Z"/><path class="cls-2" d="M249.2,167.09c-9.16,8-13.17,18.79-16.63,30-4.47,14.48-7.88,29.3-14.3,43.14-6.08,13.15-14.61,24.26-26.68,32.49-2.62,1.78-5,2.57-8.29,1.61a83.53,83.53,0,0,1-42.05-27.4c-1.68-2-3.16-3.66-1.13-6.74C164,204,192.7,172.65,230.74,150.8c1.56-.9,3.16-1.71,4.86-2.63a4.13,4.13,0,0,1,1.51.64,125.46,125.46,0,0,1,13.36,15.39C251.49,165.6,250,166.37,249.2,167.09Z"/><path class="cls-2" d="M111.77,133.34A57.22,57.22,0,0,1,92.32,133c-1.81-.37-2.5-1.16-2-3.34,1-4.23,1.43-8.59,2.17-13.42l19.4.53a96,96,0,0,1,2.51,14C114.5,131.89,114.23,133,111.77,133.34Z"/></svg>