<svg id="Layer_1" data-name="Layer 1" xmlns="http://www.w3.org/2000/svg" viewBox="0 0 300 300"><defs><style>.cls-1{fill:#c8c8c8;}.cls-2{fill:#fff;}</style></defs><rect class="cls-1" width="300" height="300" rx="15"/><path class="cls-2" d="M135,150l84-84a8.5,8.5,0,0,0,0-12L196,31.07a8.47,8.47,0,0,0-12,0L71.07,144a8.47,8.47,0,0,0,0,12L184,268.93a8.47,8.47,0,0,0,12,0L218.93,246a8.5,8.5,0,0,0,0-12Zm79,91.07L191.07,264a1.51,1.51,0,0,1-2.14,0L76,151.07a1.51,1.51,0,0,1,0-2.14L188.93,36a1.52,1.52,0,0,1,2.14,0L214,58.93a1.51,1.51,0,0,1,0,2.14L125.05,150,214,238.93A1.51,1.51,0,0,1,214,241.07Z"/><path class="cls-2" d="M214,238.93a1.51,1.51,0,0,1,0,2.14L191.07,264a1.51,1.51,0,0,1-2.14,0L76,151.07a1.51,1.51,0,0,1,0-2.14L188.93,36a1.52,1.52,0,0,1,2.14,0L214,58.93a1.51,1.51,0,0,1,0,2.14L125.05,150Z"/></svg>