<svg width="223" height="223" viewBox="0 0 223 223" fill="none" xmlns="http://www.w3.org/2000/svg">
<path d="M0.352539 50C0.352539 22.3858 22.7383 0 50.3525 0H172.353C199.967 0 222.353 22.3858 222.353 50V173C222.353 200.614 199.967 223 172.353 223H50.3525C22.7383 223 0.352539 200.614 0.352539 173V50Z" fill="#ADADAD"/>
<path d="M74.4183 31.9995C88.2252 31.9995 99.4179 43.1922 99.4179 56.9991V165.837C99.4179 179.644 88.2252 190.837 74.4183 190.837C60.6115 190.837 49.4187 179.644 49.4187 165.837V56.9991C49.4187 43.1922 60.6115 31.9995 74.4183 31.9995Z" fill="white"/>
<path d="M148.124 31.9996C161.93 31.9996 173.123 43.1923 173.123 56.9992V165.837C173.123 179.644 161.93 190.837 148.124 190.837C134.317 190.837 123.124 179.644 123.124 165.837V56.9992C123.124 43.1923 134.317 31.9996 148.124 31.9996Z" fill="white"/>
</svg>
