<svg width="222" height="223" viewBox="0 0 222 223" fill="none" xmlns="http://www.w3.org/2000/svg">
<path d="M0 50C0 22.3858 22.3858 0 50 0H172C199.614 0 222 22.3858 222 50V173C222 200.614 199.614 223 172 223H50C22.3858 223 0 200.614 0 173V50Z" fill="#D3D3D3"/>
<path d="M74.0659 31.9995C87.8728 31.9995 99.0655 43.1922 99.0655 56.9991V165.837C99.0655 179.644 87.8728 190.837 74.0659 190.837C60.259 190.837 49.0663 179.644 49.0663 165.837V56.9991C49.0663 43.1922 60.259 31.9995 74.0659 31.9995Z" fill="white"/>
<path d="M147.771 31.9996C161.578 31.9996 172.771 43.1923 172.771 56.9992V165.837C172.771 179.644 161.578 190.837 147.771 190.837C133.964 190.837 122.772 179.644 122.772 165.837V56.9992C122.772 43.1923 133.964 31.9996 147.771 31.9996Z" fill="white"/>
</svg>
