<svg id="Layer_1" data-name="Layer 1" xmlns="http://www.w3.org/2000/svg" viewBox="0 0 300 300"><defs><style>.cls-1{fill:#c8c8c8;}.cls-2{fill:#fff;}</style></defs><rect class="cls-1" width="300" height="300" rx="15"/><path class="cls-2" d="M129.32,174.65a57.51,57.51,0,0,1,2.64-14,37.32,37.32,0,0,1,6.26-11.3,70.75,70.75,0,0,1,11.37-10.88,8.14,8.14,0,0,0,.63-.54q5.29-4.84,10.6-10.22a117.43,117.43,0,0,0,9.94-11.46,61.71,61.71,0,0,0,7.05-11.87,29.56,29.56,0,0,0,2.73-12.18,35.13,35.13,0,0,0-2.09-12.74,23.48,23.48,0,0,0-5.4-8.4,10,10,0,0,0-1.1-1,27.54,27.54,0,0,0-9.13-4.36,48.24,48.24,0,0,0-13.06-1.6,41.27,41.27,0,0,0-11.22,1.52,26.24,26.24,0,0,0-9.62,4.89,24.69,24.69,0,0,0-7,8.66,23.24,23.24,0,0,0-1.6,4.11,11.7,11.7,0,0,1-11.2,8.55h-22A11.66,11.66,0,0,1,75.73,78,58.1,58.1,0,0,1,96.54,43.36a67.89,67.89,0,0,1,23.72-11.95,106.07,106.07,0,0,1,29.5-3.92,116.86,116.86,0,0,1,31.9,4,66.93,66.93,0,0,1,23.89,11.87A53.06,53.06,0,0,1,220.3,63.07q5.13,11.71,5.13,27.1a54.36,54.36,0,0,1-3.85,20.76,77,77,0,0,1-9.94,17.39,116.71,116.71,0,0,1-13.87,15.47q-7.64,7.16-15.34,13.94c-.19.16-.38.34-.56.52a77.56,77.56,0,0,0-7.26,8.22,24,24,0,0,0-3.85,7.54,33.64,33.64,0,0,0-1.6,8.42v.09a11.66,11.66,0,0,1-11.6,10.89h-17A11.64,11.64,0,0,1,129,181.33C129.05,178.92,129.17,176.7,129.32,174.65Zm-.24,55.94q6.88-7.12,19.08-7.13,11.85,0,19,7.13a24,24,0,0,1,7.14,17.72,23.13,23.13,0,0,1-7.14,17.23q-7.12,7-19,7-12.19,0-19.08-7a23.53,23.53,0,0,1-6.89-17.23A24.48,24.48,0,0,1,129.08,230.59Z"/></svg>