<svg id="Layer_1" data-name="Layer 1" xmlns="http://www.w3.org/2000/svg" viewBox="0 0 300 300"><defs><style>.cls-1{fill:#575756;}.cls-2,.cls-3{fill:#fff;stroke:#fff;stroke-miterlimit:10;}.cls-2{stroke-width:17px;}.cls-3{stroke-width:19px;}</style></defs><rect class="cls-1" width="300" height="300" rx="15"/><path class="cls-2" d="M172.55,65.28l-6.64,7.11L144.81,95a5.1,5.1,0,0,1-7.47,0h0a5.11,5.11,0,0,1,0-7l15.15-16.25h0L158.88,65l-6.36-6.84h0L137.34,41.85a5.11,5.11,0,0,1,0-7h0a5.12,5.12,0,0,1,7.47,0l22.27,23.89,5.47,5.87A.49.49,0,0,1,172.55,65.28Z"/><path class="cls-3" d="M212.66,87.68h0c-1.57,1.57-.85,3.11.78,4.62a93,93,0,0,1,29.87,69.1c-.37,50.5-41.48,91.91-92,92.61A93.31,93.31,0,1,1,149.63,67.4H150c2.68,0,0-4.11,0-7.78,0-.12-.24,0-.35,0h0A101.06,101.06,0,0,0,48.93,162.24c.8,54.41,45.22,98.78,99.63,99.54A101.08,101.08,0,0,0,251.09,160.71c0-29.29-13.11-54.67-33-73.13A3.91,3.91,0,0,0,212.66,87.68Z"/></svg>