<svg id="Layer_1" data-name="Layer 1" xmlns="http://www.w3.org/2000/svg" viewBox="0 0 300 300"><defs><style>.cls-1{fill:#a8a8a8;}.cls-2{fill:#fff;}</style></defs><rect class="cls-1" width="300" height="300" rx="15"/><path class="cls-1" d="M275.8,118.34l-9,33.44a3.35,3.35,0,0,1-.24.65,3.5,3.5,0,0,1-6.52-2.46l2.85-10.64,5.21-19.42-220.35-59L42.57,80.31l-.9,3.37-.9,3.39h0l-1,3.94a3.5,3.5,0,0,1-6.83-1.44l0-.08a2.41,2.41,0,0,1,.07-.37l1.5-5.61v0l.43-1.59,0-.15a.65.65,0,0,1,0-.13l6.94-25.93a3.5,3.5,0,0,1,4.28-2.47l227.11,60.85a3.5,3.5,0,0,1,2.48,4.29Z"/><path class="cls-1" d="M206.53,126.92a3.48,3.48,0,0,1-.12.9l-.17.63-.73,2.74-3.8,14.19a3.5,3.5,0,0,1-3.36,2.52,3.61,3.61,0,0,1-.91-.12,3.49,3.49,0,0,1-2.29-2h0a3.5,3.5,0,0,1-.18-2.31l.83-3.12,2.94-11-158-42.33h0l-1,3.94L36,104.8l-2.85,10.66a3.5,3.5,0,0,1-6.77-1.81L33,89.12l1.5-5.61.15-.54.29-1.09a3.91,3.91,0,0,1,.24-.65c.05-.1.11-.2.17-.3s.12-.19.19-.28l.22-.26.2-.19a.53.53,0,0,1,.12-.1,1.56,1.56,0,0,1,.2-.16,2.9,2.9,0,0,1,.29-.19l.21-.11a3.71,3.71,0,0,1,.87-.29,1.08,1.08,0,0,1,.19,0h.06a3,3,0,0,1,.42,0,3.46,3.46,0,0,1,.89.12h0l3.38.91,161.06,43.16.21,0h0l.05,0,.29.09a3.47,3.47,0,0,1,1,.57l.21.19a2,2,0,0,1,.24.26,2,2,0,0,1,.23.28l.18.29a3.64,3.64,0,0,1,.25.57,2.76,2.76,0,0,1,.08.27,1.27,1.27,0,0,1,.06.28l0,.21C206.52,126.68,206.53,126.8,206.53,126.92Z"/><path class="cls-1" d="M206.53,126.92a3.48,3.48,0,0,1-.12.9l-.17.63-.72,2.74-3.79,14.38a3.29,3.29,0,0,1-.26.68h0a3.45,3.45,0,0,1-.86,1.08,2.61,2.61,0,0,1-.51.36,3.39,3.39,0,0,1-1.75.48,3.5,3.5,0,0,1-.91-.12l-3.39-.91H194L36,104.8l-3.31-.89a3.5,3.5,0,0,1-2.48-4.27l2.66-10.07,0-.12,1.56-5.94.15-.54.11-.43.17-.65a1,1,0,0,1,.05-.16.65.65,0,0,1,0-.13,2.43,2.43,0,0,1,.16-.37c.05-.1.11-.2.17-.3s.12-.19.19-.28l.22-.26.2-.19a.53.53,0,0,1,.12-.1,1.56,1.56,0,0,1,.2-.16,2.9,2.9,0,0,1,.29-.19l.21-.11a3.71,3.71,0,0,1,.87-.29,1.08,1.08,0,0,1,.19,0h.06a3,3,0,0,1,.42,0,3.46,3.46,0,0,1,.89.12h0a3.51,3.51,0,0,1,2.48,4.28l-.89,3.39h0l-2.89,11L195.8,140.37l.06,0L199.64,126v0a2.49,2.49,0,0,1,.2-.54c0-.08.08-.17.13-.25a1.58,1.58,0,0,1,.15-.24,1.43,1.43,0,0,1,.14-.2l.07-.08c0-.06.1-.11.15-.17l.2-.2.22-.18.23-.16a3.56,3.56,0,0,1,2.7-.46h.08l.3.1a3.47,3.47,0,0,1,1,.57,1.29,1.29,0,0,1,.21.19,2,2,0,0,1,.24.26,2,2,0,0,1,.23.28l.18.29a3.64,3.64,0,0,1,.25.57,2.76,2.76,0,0,1,.08.27,1.27,1.27,0,0,1,.06.28l0,.21C206.52,126.68,206.53,126.8,206.53,126.92Z"/><path class="cls-2" d="M270,120.58,264.79,140l-59-15.8a1.55,1.55,0,0,0-.31-.06L44.44,81l5.21-19.44Z"/><polygon class="cls-2" points="198.74 129.4 195.8 140.37 37.88 98.05 40.77 87.07 40.78 87.07 198.74 129.4"/><path class="cls-1" d="M268.71,144.5l-2.12,7.93L263.75,163l0,.15-.82,3.06a3.48,3.48,0,0,1-1.85,2.24,3.2,3.2,0,0,1-1.32.35h-.21a3.56,3.56,0,0,1-.91-.12,3.82,3.82,0,0,1-.51-.18,3.5,3.5,0,0,1-2-4.11l.49-1.82.06-.22L261,146.07l-55.52-14.88h0l-3.8,14.19-.24.87h0l-.44,1.63-.44,1.65a3.49,3.49,0,0,1-4.28,2.47,3.55,3.55,0,0,1-1.93-1.32c-.08-.11-.14-.21-.21-.32A3.78,3.78,0,0,1,194,150a2.85,2.85,0,0,1-.18-.54,3.44,3.44,0,0,1-.1-1.06,1.79,1.79,0,0,1,0-.23,3,3,0,0,1,.08-.41s0,0,0-.05l.16-.59,1-3.65.83-3.12,2.94-11,.9-3.36v0a2.49,2.49,0,0,1,.2-.54c0-.08.08-.17.13-.25a1.58,1.58,0,0,1,.15-.24,1.43,1.43,0,0,1,.14-.2l.07-.08c0-.06.1-.11.15-.17l.2-.2.22-.18.23-.16a.71.71,0,0,1,.14-.1,3.41,3.41,0,0,1,2.35-.41,1.55,1.55,0,0,1,.31.06l59,15.8,3.31.89A3.5,3.5,0,0,1,268.71,144.5Z"/><path class="cls-2" d="M261,146.07l-4.37,16.31-37.38,9.82L201,147.89l.44-1.63h0a3.29,3.29,0,0,0,.26-.68l3.79-14.38Z"/><path class="cls-1" d="M264.29,164.65a3.5,3.5,0,0,1-2.6,3.65l-.65.17-1.32.35h0l-1.43.38L218.8,179.57a3.46,3.46,0,0,1-.89.12,3.5,3.5,0,0,1-2.8-1.4l-2.86-3.81-17.84-23.74,0-.05c-.08-.11-.14-.21-.21-.32A3.78,3.78,0,0,1,194,150a2.85,2.85,0,0,1-.18-.54,3.44,3.44,0,0,1-.1-1.06,1.79,1.79,0,0,1,0-.23,3,3,0,0,1,.08-.41s0,0,0-.05a3.66,3.66,0,0,1,.22-.58,3.45,3.45,0,0,1,1.06-1.32l0,0h0a3.52,3.52,0,0,1,4.86.73l.48.64.12.17.42.55,18.26,24.31,37.38-9.82,3.25-.85a3.47,3.47,0,0,1,3.83,1.49,3.34,3.34,0,0,1,.44,1A2.76,2.76,0,0,1,264.29,164.65Z"/><path class="cls-1" d="M266.37,186,39.27,246.8a3.61,3.61,0,0,1-.91.12,3,3,0,0,1-.42,0,3.57,3.57,0,0,1-.55-.11,1.91,1.91,0,0,1-.36-.13,2.64,2.64,0,0,1-.38-.18A3.43,3.43,0,0,1,35,244.33L30.3,226.86A3.5,3.5,0,1,1,37.06,225l.91,3.38,2.87,10.71,220.34-59-2.87-10.71,0-.18-.18-.67-.68-2.53a3.5,3.5,0,0,1,6.76-1.81l.12.44v0l4.56,17A3.5,3.5,0,0,1,266.37,186Z"/><rect class="cls-2" x="35.52" y="198.71" width="228.11" height="11.09" transform="translate(-47.77 45.67) rotate(-15)"/><path class="cls-1" d="M266.37,186a3.49,3.49,0,0,1-4.28-2.48l-.91-3.38-2.87-10.71L38,228.42l2.87,10.71.9,3.38a3.51,3.51,0,0,1-2.47,4.29,3.61,3.61,0,0,1-.91.12,3,3,0,0,1-.42,0,3.57,3.57,0,0,1-.55-.11,1.91,1.91,0,0,1-.36-.13,2.64,2.64,0,0,1-.38-.18A3.43,3.43,0,0,1,35,244.33L30.3,226.86a3.51,3.51,0,0,1,2.47-4.29l179.48-48.09,44.36-11.88,3.27-.88a3.5,3.5,0,0,1,4.29,2.47l.12.44v0l4.56,17A3.5,3.5,0,0,1,266.37,186Z"/><path class="cls-2" d="M44.58,90.65l-2.41,9-1.85,6.93a2.28,2.28,0,1,1-4.4-1.18L40.2,89.43"/></svg>