<svg id="Layer_1" data-name="Layer 1" xmlns="http://www.w3.org/2000/svg" viewBox="0 0 300 300"><defs><style>.cls-1{fill:none;stroke:#fff;stroke-linecap:round;stroke-linejoin:round;stroke-width:7px;}</style></defs><polyline class="cls-1" points="280 113.89 280 70.56 164.44 70.56 164.44 113.89"/><polyline class="cls-1" points="280 157.22 280 113.89 164.44 113.89 164.44 157.22"/><polyline class="cls-1" points="280 200.56 280 157.22 164.44 157.22 164.44 200.56"/><polyline class="cls-1" points="280 243.89 280 200.56 164.44 200.56 164.44 243.89"/><polyline class="cls-1" points="280 200.56 280 243.89 164.44 243.89 164.44 200.56"/><polyline class="cls-1" points="164.44 56.11 121.11 56.11 121.11 171.67 164.44 171.67"/><polyline class="cls-1" points="121.11 56.11 164.44 56.11 164.44 171.66 121.11 171.66"/><polyline class="cls-1" points="121.11 113.89 121.11 85 20 85 20 113.89"/><polyline class="cls-1" points="20 200.56 20 229.44 164.44 229.44 164.44 200.56"/></svg>