<svg id="Layer_1" data-name="Layer 1" xmlns="http://www.w3.org/2000/svg" viewBox="0 0 300 300"><defs><style>.cls-1{fill:none;stroke:#fff;stroke-linecap:round;stroke-linejoin:round;stroke-width:7px;}</style></defs><polyline class="cls-1" points="280 40 280 20 20 20 20 40"/><polyline class="cls-1" points="280 270 280 250 20 250 20 270"/><polyline class="cls-1" points="280 30 280 50 20 50 20 30"/><polyline class="cls-1" points="280 260 280 280 20 280 20 260"/><polyline class="cls-1" points="200 130 230 130 230 190 200 190"/><polyline class="cls-1" points="200 130 200 120 230 120 230 130"/><polyline class="cls-1" points="200 150 190 150 190 130 200 130"/><polyline class="cls-1" points="200 170 190 170 190 150 200 150"/><polyline class="cls-1" points="200 190 190 190 190 170 200 170"/><polyline class="cls-1" points="70 50 50 50 50 250 70 250"/><polyline class="cls-1" points="150 50 130 50 130 250 150 250"/><polyline class="cls-1" points="150 50 170 50 170 250 150 250"/><polyline class="cls-1" points="210 190 210 250 230 250"/><polyline class="cls-1" points="230 50 210 50 210 120"/><polyline class="cls-1" points="100 130 70 130 70 190 100 190"/><polyline class="cls-1" points="100 130 100 120 70 120 70 130"/><polyline class="cls-1" points="100 150 110 150 110 130 100 130"/><polyline class="cls-1" points="100 170 110 170 110 150 100 150"/><polyline class="cls-1" points="100 190 110 190 110 170 100 170"/><polyline class="cls-1" points="90 190 90 250 70 250"/><polyline class="cls-1" points="70 50 90 50 90 120"/><polyline class="cls-1" points="230 50 250 50 250 250 230 250"/></svg>